<svg xmlns="http://www.w3.org/2000/svg" xmlns:xlink="http://www.w3.org/1999/xlink" width="404" height="302.0007781982422" viewBox="0 0 404 302.0007781982422" fill="none">
<path d="M316.902 300C338.807 273.926 352 240.29 352 203.571C352 120.729 284.843 53.5714 202 53.5714C119.157 53.5714 52 120.729 52 203.571C52 240.29 65.1931 273.926 87.0976 300L316.902 300Z" fill-rule="evenodd"  fill="#F0F3FC" >
</path>
<g opacity="0.15">
<path d="M290.488 159.639L288.579 161.909C288.415 162.104 288.309 162.34 288.272 162.592L283.451 195.407C283.36 196.022 283.695 196.62 284.266 196.865L288.579 198.713C288.758 198.79 288.941 198.825 289.119 198.825L289.119 209.295C289.119 209.673 289.425 209.98 289.804 209.98C290.182 209.98 290.489 209.673 290.489 209.295L290.489 190.115C290.489 190.108 290.489 190.102 290.488 190.095L290.488 159.639Z" fill-rule="evenodd"  fill="#9D9FA4" >
</path>
<path d="M290.488 158.954L288.579 161.224C288.415 161.419 288.309 161.655 288.272 161.907L283.451 194.722C283.36 195.337 283.695 195.935 284.266 196.18L288.579 198.028C288.758 198.105 288.941 198.14 289.119 198.141L289.119 208.61C289.119 208.988 289.425 209.295 289.804 209.295C290.182 209.295 290.489 208.988 290.489 208.61L290.489 189.43C290.489 189.423 290.489 189.417 290.488 189.41L290.488 158.954Z" fill-rule="evenodd"  fill="#BCBEC4" >
</path>
<path d="M246.826 233.09L249.747 233.608C249.998 233.652 250.256 233.626 250.492 233.533L281.321 221.3C281.899 221.071 282.25 220.482 282.176 219.865L281.621 215.206C281.598 215.013 281.537 214.837 281.448 214.682L290.515 209.448C290.842 209.258 290.955 208.839 290.765 208.512C290.576 208.184 290.157 208.072 289.83 208.261L273.219 217.851C273.214 217.854 273.208 217.858 273.202 217.861L246.826 233.09Z" fill-rule="evenodd"  fill="#9D9FA4" >
</path>
<path d="M246.484 232.747L249.405 233.266C249.655 233.31 249.913 233.284 250.149 233.19L280.979 220.958C281.556 220.729 281.907 220.139 281.834 219.522L281.278 214.863C281.255 214.67 281.194 214.494 281.105 214.34L290.172 209.105C290.5 208.916 290.612 208.497 290.423 208.169C290.234 207.842 289.815 207.729 289.487 207.919L272.877 217.509C272.871 217.512 272.865 217.515 272.86 217.519L246.484 232.747Z" fill-rule="evenodd"  fill="#BCBEC4" >
</path>
<path d="M332.712 234.745L331.7 231.956C331.614 231.717 331.462 231.507 331.263 231.349L305.255 210.766C304.767 210.381 304.082 210.372 303.584 210.744L299.827 213.555C299.671 213.671 299.549 213.812 299.46 213.966L290.393 208.731C290.065 208.542 289.646 208.654 289.457 208.982C289.268 209.309 289.38 209.728 289.708 209.918L306.318 219.508C306.324 219.511 306.33 219.514 306.336 219.517L332.712 234.745Z" fill-rule="evenodd"  fill="#9D9FA4" >
</path>
<path d="M332.712 234.061L331.7 231.272C331.614 231.033 331.462 230.822 331.263 230.665L305.255 210.082C304.767 209.696 304.082 209.687 303.584 210.059L299.827 212.87C299.671 212.986 299.549 213.127 299.46 213.281L290.393 208.046C290.065 207.857 289.646 207.969 289.457 208.297C289.268 208.625 289.38 209.044 289.708 209.233L306.318 218.823C306.324 218.826 306.33 218.829 306.336 218.832L332.712 234.061Z" fill-rule="evenodd"  fill="#BCBEC4" >
</path>
<path d="M291.564 211.381C292.543 210.963 293.229 209.992 293.229 208.86C293.229 207.347 292.002 206.12 290.489 206.12C288.976 206.12 287.749 207.347 287.749 208.86C287.749 209.991 288.434 210.962 289.413 211.38L283.982 302L296.994 302L291.564 211.381Z" fill-rule="evenodd"  fill="#9D9FA4" >
</path>
<path d="M290.879 211.381C291.858 210.963 292.544 209.992 292.544 208.86C292.544 207.347 291.317 206.12 289.804 206.12C288.291 206.12 287.064 207.347 287.064 208.86C287.064 209.991 287.75 210.962 288.728 211.381L283.297 302L296.31 302L290.879 211.381Z" fill-rule="evenodd"  fill="#BCBEC4" >
</path>
</g>
<g opacity="0.6">
<rect  x="56" y="176" width="26.71" height="63" rx="13.355"    fill="#E9EBF2" >
</rect>
<rect  x="68.75885009765625" y="201.51766967773438" width="1.59" height="98.48" rx="0.795"    fill="#E1E2E5" >
</rect>
<rect  x="75.33843994140625" y="205.0194549560547" width="1.59" height="13.44" transform="rotate(30.000000445292045 75.33843994140625 205.0194549560547)" rx="0.795"    fill="#E1E2E5" >
</rect>
<rect  transform="matrix(0.8660253882408142, -0.5, -0.5, -0.8660253882408142, 69.20086669921875, 226.49032592773438)" x="0" y="0" width="1.59" height="18.91" rx="0.795"    fill="#E1E2E5" >
</rect>
</g>
<rect  x="91" y="124" width="38.2" height="90.08" rx="19.1"    fill="#E9EBF2" >
</rect>
<rect  x="109.2445068359375" y="160.4888916015625" width="2.28" height="140.82" rx="1.14"    fill="#E1E2E5" >
</rect>
<rect  x="118.6529541015625" y="165.49627685546875" width="2.28" height="19.22" transform="rotate(30.000000445292045 118.6529541015625 165.49627685546875)" rx="1.14"    fill="#E1E2E5" >
</rect>
<rect  transform="matrix(0.8660253882408142, -0.5, -0.5, -0.8660253882408142, 109.87652587890625, 196.198486328125)" x="0" y="0" width="2.28" height="27.04" rx="1.14"    fill="#E1E2E5" >
</rect>
<g opacity="0.8">
<path d="M136.993 106.138C136.995 106.069 136.996 106 136.996 105.93C136.996 101.55 133.445 98 129.066 98C124.686 98 121.136 101.55 121.136 105.93C121.136 106 121.136 106.069 121.138 106.138C121.069 106.136 121 106.136 120.93 106.136C116.55 106.136 113 109.686 113 114.066C113 118.445 116.55 121.996 120.93 121.996C120.999 121.996 121.067 121.995 121.136 121.993L121.136 122L136.996 122L136.996 121.993C141.282 121.886 144.724 118.378 144.724 114.066C144.724 109.752 141.281 106.243 136.993 106.138Z" fill-rule="evenodd"  fill="#FFFFFF" >
</path>
</g>
<g opacity="0.6">
<path d="M271.001 124.713C271.002 124.69 271.002 124.668 271.002 124.645C271.002 123.184 269.818 122 268.357 122C266.896 122 265.712 123.184 265.712 124.645C265.712 124.668 265.712 124.69 265.713 124.713C265.69 124.712 265.668 124.712 265.645 124.712C264.184 124.712 263 125.896 263 127.357C263 128.818 264.184 130.002 265.645 130.002C265.667 130.002 265.69 130.002 265.712 130.001L265.712 130.003L271.002 130.003L271.002 130.001C272.431 129.965 273.578 128.795 273.578 127.357C273.578 125.919 272.43 124.749 271.001 124.713Z" fill-rule="evenodd"  fill="#FFFFFF" >
</path>
</g>
<path d="M224.788 70.6871C222.805 66.1616 218.287 63 213.03 63C205.944 63 200.2 68.7442 200.2 75.83C200.2 75.93 200.201 76.0298 200.203 76.1293C197.235 76.7303 195 79.3541 195 82.5C195 86.0899 197.91 89 201.5 89L239.98 89C243.57 89 246.48 86.0899 246.48 82.5C246.48 78.9101 243.57 76 239.98 76L237.042 76C236.517 72.1911 233.249 69.2576 229.296 69.2576C227.617 69.2576 226.062 69.7866 224.788 70.6871Z" fill-rule="evenodd"  fill="#FFFFFF" >
</path>
<g opacity="0.6">
<path d="M169.153 142.135C168.344 140.289 166.5 139 164.356 139C161.465 139 159.121 141.344 159.121 144.235C159.121 144.275 159.122 144.315 159.123 144.355C157.912 144.6 157 145.67 157 146.953C157 148.417 158.186 149.603 159.65 149.603L175.35 149.603C176.814 149.603 178 148.417 178 146.953C178 145.489 176.814 144.303 175.35 144.303L174.15 144.303C173.936 142.749 172.603 141.553 170.99 141.553C170.306 141.553 169.672 141.768 169.153 142.135Z" fill-rule="evenodd"  fill="#FFFFFF" >
</path>
</g>
<path d="M320.385 78.1397L317.382 81.71C317.124 82.016 316.957 82.3877 316.899 82.7833L309.318 134.384C309.176 135.351 309.702 136.292 310.6 136.677L317.382 139.584C317.663 139.704 317.951 139.76 318.231 139.76L318.231 156.221C318.231 156.815 318.712 157.296 319.306 157.296C319.899 157.296 320.381 156.815 320.381 156.221L320.381 137.735C320.383 137.692 320.385 137.648 320.385 137.604L320.385 78.1397Z" fill-rule="evenodd"  fill="#DCDFE5" >
</path>
<path d="M320.385 77.0627L317.382 80.6331C317.124 80.9391 316.957 81.3107 316.899 81.7063L309.318 133.307C309.176 134.274 309.702 135.215 310.6 135.6L317.382 138.507C317.663 138.627 317.951 138.683 318.231 138.683L318.231 155.144C318.231 155.738 318.712 156.219 319.306 156.219C319.899 156.219 320.381 155.738 320.381 155.144L320.381 136.658C320.383 136.615 320.385 136.571 320.385 136.527L320.385 77.0627Z" fill-rule="evenodd"  fill="#E9EBF2" >
</path>
<path d="M251.727 193.64L256.32 194.455C256.714 194.525 257.119 194.484 257.491 194.336L305.97 175.101C306.878 174.741 307.43 173.815 307.314 172.844L306.44 165.518C306.404 165.214 306.309 164.937 306.169 164.695L320.424 156.464C320.938 156.168 321.114 155.51 320.818 154.996C320.521 154.482 319.863 154.306 319.349 154.602L303.341 163.844C303.302 163.864 303.263 163.885 303.224 163.908L251.727 193.64Z" fill-rule="evenodd"  fill="#DCDFE5" >
</path>
<path d="M251.188 193.101L255.782 193.917C256.175 193.986 256.581 193.945 256.952 193.798L305.431 174.563C306.339 174.203 306.891 173.276 306.775 172.306L305.902 164.979C305.865 164.676 305.77 164.399 305.63 164.156L319.886 155.926C320.4 155.629 320.576 154.972 320.279 154.457C319.982 153.943 319.325 153.767 318.811 154.064L302.801 163.307C302.763 163.326 302.724 163.347 302.686 163.369L251.188 193.101Z" fill-rule="evenodd"  fill="#E9EBF2" >
</path>
<path d="M386.78 196.244L385.189 191.858C385.053 191.482 384.815 191.152 384.501 190.903L343.604 158.537C342.838 157.931 341.76 157.916 340.977 158.501L335.069 162.922C334.824 163.105 334.632 163.326 334.492 163.568L320.237 155.338C319.722 155.041 319.065 155.217 318.768 155.731C318.471 156.245 318.647 156.903 319.162 157.2L335.171 166.443C335.207 166.466 335.244 166.489 335.282 166.511L386.78 196.244Z" fill-rule="evenodd"  fill="#DCDFE5" >
</path>
<path d="M386.78 195.167L385.189 190.781C385.053 190.405 384.815 190.075 384.501 189.827L343.604 157.46C342.838 156.854 341.76 156.839 340.977 157.425L335.069 161.845C334.824 162.028 334.632 162.249 334.492 162.491L320.237 154.261C319.722 153.964 319.065 154.14 318.768 154.654C318.471 155.169 318.647 155.826 319.162 156.123L335.171 165.366C335.207 165.39 335.244 165.413 335.282 165.435L386.78 195.167Z" fill-rule="evenodd"  fill="#E9EBF2" >
</path>
<path d="M322.077 159.507C323.617 158.85 324.697 157.321 324.697 155.541C324.697 153.16 322.767 151.231 320.387 151.231C318.007 151.231 316.077 153.16 316.077 155.541C316.077 157.32 317.155 158.847 318.693 159.505L310.154 302L330.615 302L322.077 159.507Z" fill-rule="evenodd"  fill="#DCDFE5" >
</path>
<path d="M321 159.507C322.54 158.85 323.62 157.321 323.62 155.541C323.62 153.16 321.69 151.231 319.31 151.231C316.93 151.231 315 153.16 315 155.541C315 157.32 316.078 158.847 317.616 159.505L309.077 302L329.538 302L321 159.507Z" fill-rule="evenodd"  fill="#E9EBF2" >
</path>
<path d="M329.967 299L340.906 299C343.319 299 345.96 298.521 342.376 296.512C345.394 296.512 348.45 294.8 342.981 293.887C345.244 292.427 345.244 287.679 339.775 290.053C342.981 284.575 337.7 282.019 334.683 287.131C333.174 282.201 325.441 280.375 327.704 289.14C324.082 287.131 318.801 291.947 325.968 294.503C322.761 295.234 317.293 299 329.967 299Z"   fill="#D7D8DE" >
</path>
<path d="M281.967 299L292.906 299C295.319 299 297.96 298.521 294.376 296.512C297.394 296.512 300.45 294.8 294.981 293.887C297.244 292.427 297.244 287.679 291.775 290.053C294.981 284.575 289.7 282.019 286.683 287.131C285.174 282.201 277.441 280.375 279.704 289.14C276.082 287.131 270.801 291.947 277.968 294.503C274.761 295.234 269.293 299 281.967 299Z"   fill="#D7D8DE" >
</path>
<path d="M304.116 300L325.538 300C330.263 300 335.434 299.101 328.416 295.335C334.326 295.335 340.312 292.126 329.601 290.414C334.033 287.675 334.033 278.774 323.322 283.224C329.601 272.953 319.259 268.16 313.35 277.746C310.395 268.503 295.252 265.079 299.684 281.512C292.59 277.746 282.248 286.776 296.283 291.569C290.004 292.938 279.296 300 304.116 300Z"   fill="#E1E1E5" >
</path>
<path d="M280.992 277.143C281.842 277.83 282.26 278.833 282.403 279.831C282.552 280.865 283.151 282.123 284.318 282.504C285.486 282.886 286.552 280.504 284.561 278.553C283.738 277.746 282.981 277.205 280.992 277.143Z"   fill="#E5E6ED" >
</path>
<path d="M285.398 282.717C285.112 281.361 284.302 278.597 282.138 277.621C283.28 278.122 284.766 279.9 285.133 282.784L285.398 282.717Z"   fill="#727785" >
</path>
<path d="M284.306 279.802C284.382 279.482 284.488 278.806 284.123 278.378C284.317 278.601 284.455 279.133 284.242 279.789L284.306 279.802Z"   fill="#727785" >
</path>
<path d="M283.817 279.089C283.647 279.076 283.296 279.021 283.128 278.761C283.215 278.899 283.463 279.058 283.819 279.054L283.817 279.089Z"   fill="#727785" >
</path>
<path d="M284.758 280.787C284.914 280.498 285.19 279.873 284.948 279.365C285.078 279.63 285.075 280.18 284.7 280.759L284.758 280.787Z"   fill="#727785" >
</path>
<path d="M284.528 280.3C284.2 280.276 283.524 280.174 283.225 279.697C283.379 279.949 283.845 280.241 284.535 280.235L284.528 280.3Z"   fill="#727785" >
</path>
<path d="M284.975 281.644C284.534 281.598 283.625 281.427 283.206 280.734C283.423 281.1 284.058 281.535 284.982 281.552L284.975 281.644Z"   fill="#727785" >
</path>
<path d="M343.489 280.531C342.419 280.757 341.591 281.46 341.01 282.284C340.408 283.137 339.303 283.986 338.089 283.795C336.876 283.604 337.009 280.997 339.669 280.165C340.769 279.821 341.69 279.682 343.489 280.531Z"   fill="#E5E6ED" >
</path>
<path d="M337.031 283.494C337.902 282.416 339.88 280.322 342.251 280.436C341.006 280.363 338.874 281.272 337.237 283.674L337.031 283.494Z"   fill="#727785" >
</path>
<path d="M339.329 281.393C339.407 281.074 339.619 280.424 340.139 280.208C339.865 280.319 339.5 280.73 339.392 281.411L339.329 281.393Z"   fill="#727785" >
</path>
<path d="M340.089 280.981C340.245 281.047 340.583 281.157 340.851 281.002C340.711 281.085 340.418 281.114 340.103 280.948L340.089 280.981Z"   fill="#727785" >
</path>
<path d="M338.478 282.066C338.471 281.737 338.509 281.055 338.956 280.712C338.719 280.89 338.472 281.381 338.543 282.067L338.478 282.066Z"   fill="#727785" >
</path>
<path d="M338.905 281.736C339.208 281.864 339.856 282.08 340.339 281.791C340.087 281.946 339.539 281.994 338.928 281.675L338.905 281.736Z"   fill="#727785" >
</path>
<path d="M337.895 282.73C338.309 282.889 339.197 283.15 339.885 282.723C339.526 282.951 338.762 283.05 337.931 282.645L337.895 282.73Z"   fill="#727785" >
</path>
<path d="M319.313 263.14C318.516 263.888 318.171 264.918 318.101 265.924C318.029 266.965 317.522 268.264 316.386 268.729C315.249 269.195 314.012 266.896 315.856 264.806C316.619 263.942 317.334 263.346 319.313 263.14Z"   fill="#E5E6ED" >
</path>
<path d="M315.324 269.02C315.511 267.647 316.118 264.831 318.205 263.7C317.103 264.283 315.75 266.164 315.594 269.067L315.324 269.02Z"   fill="#727785" >
</path>
<path d="M316.202 266.033C316.103 265.719 315.948 265.053 316.281 264.599C316.103 264.836 316.004 265.377 316.265 266.016L316.202 266.033Z"   fill="#727785" >
</path>
<path d="M316.638 265.286C316.806 265.261 317.152 265.181 317.301 264.909C317.224 265.053 316.988 265.23 316.633 265.251L316.638 265.286Z"   fill="#727785" >
</path>
<path d="M315.822 267.049C315.646 266.771 315.325 266.168 315.529 265.644C315.419 265.918 315.462 266.466 315.878 267.016L315.822 267.049Z"   fill="#727785" >
</path>
<path d="M316.017 266.546C316.342 266.498 317.009 266.347 317.272 265.85C317.137 266.112 316.693 266.438 316.005 266.482L316.017 266.546Z"   fill="#727785" >
</path>
<path d="M315.668 267.919C316.104 267.841 316.999 267.604 317.366 266.882C317.177 267.263 316.575 267.744 315.654 267.828L315.668 267.919Z"   fill="#727785" >
</path>
<path d="M295.807 265.082C296.271 265.528 296.466 266.137 296.5 266.729C296.535 267.342 296.824 268.11 297.489 268.392C298.155 268.674 298.899 267.331 297.829 266.088C297.387 265.573 296.97 265.218 295.807 265.082Z"   fill="#E5E6ED" >
</path>
<path d="M298.112 268.571C298.012 267.761 297.675 266.1 296.456 265.42C297.1 265.771 297.882 266.888 297.953 268.597L298.112 268.571Z"   fill="#727785" >
</path>
<path d="M297.617 266.807C297.678 266.623 297.774 266.232 297.581 265.963C297.684 266.103 297.738 266.422 297.58 266.796L297.617 266.807Z"   fill="#727785" >
</path>
<path d="M297.366 266.364C297.267 266.349 297.064 266.299 296.979 266.138C297.023 266.223 297.16 266.329 297.369 266.344L297.366 266.364Z"   fill="#727785" >
</path>
<path d="M297.833 267.407C297.939 267.245 298.132 266.893 298.016 266.583C298.078 266.745 298.049 267.067 297.8 267.388L297.833 267.407Z"   fill="#727785" >
</path>
<path d="M297.722 267.11C297.531 267.079 297.14 266.986 296.989 266.691C297.067 266.847 297.325 267.041 297.73 267.072L297.722 267.11Z"   fill="#727785" >
</path>
<path d="M297.917 267.92C297.661 267.871 297.136 267.725 296.926 267.298C297.034 267.524 297.385 267.811 297.926 267.867L297.917 267.92Z"   fill="#727785" >
</path>
<path d="M63.9758 300L74.5896 300C76.9306 300 79.4925 299.555 76.0156 297.689C78.9435 297.689 81.9094 296.099 76.6025 295.25C78.7985 293.893 78.7985 289.483 73.4916 291.688C76.6025 286.599 71.4786 284.225 68.5507 288.974C67.0867 284.394 59.5839 282.698 61.7798 290.84C58.2649 288.974 53.141 293.448 60.0949 295.823C56.984 296.501 51.6784 300 63.9758 300Z"   fill="#E9EBF2" >
</path>
<path d="M75.0565 299.505L80.4763 299.505C81.6717 299.505 82.98 299.267 81.2045 298.272C82.6996 298.272 84.2141 297.424 81.5042 296.971C82.6256 296.248 82.6256 293.896 79.9157 295.072C81.5042 292.358 78.8878 291.091 77.3926 293.624C76.6451 291.181 72.8138 290.277 73.9352 294.619C72.1403 293.624 69.5239 296.01 73.0748 297.277C71.4862 297.639 68.777 299.505 75.0565 299.505Z"   fill="#DFE0E5" >
</path>
<path d="M55.0183 286.58C55.5483 286.692 55.9587 287.04 56.2465 287.448C56.5447 287.871 57.0925 288.291 57.6938 288.197C58.295 288.102 58.2291 286.811 56.9112 286.398C56.3659 286.228 55.9099 286.159 55.0183 286.58Z"   fill="#E5E6ED" >
</path>
<path d="M58.2181 288.048C57.7865 287.514 56.8063 286.476 55.6318 286.532C56.2484 286.497 57.3047 286.947 58.1162 288.137L58.2181 288.048Z"   fill="#727785" >
</path>
<path d="M57.0794 287.007C57.0409 286.849 56.9357 286.527 56.678 286.42C56.8139 286.475 56.995 286.678 57.0485 287.016L57.0794 287.007Z"   fill="#727785" >
</path>
<path d="M56.7031 286.802C56.6254 286.835 56.458 286.89 56.3253 286.813C56.3946 286.854 56.5401 286.868 56.696 286.786L56.7031 286.802Z"   fill="#727785" >
</path>
<path d="M57.501 287.34C57.5046 287.177 57.4859 286.839 57.2645 286.669C57.3817 286.757 57.5041 287.001 57.4689 287.341L57.501 287.34Z"   fill="#727785" >
</path>
<path d="M57.2895 287.177C57.1394 287.24 56.8182 287.347 56.5788 287.204C56.7038 287.281 56.9752 287.305 57.2782 287.147L57.2895 287.177Z"   fill="#727785" >
</path>
<path d="M57.7897 287.669C57.5849 287.748 57.1448 287.878 56.804 287.666C56.982 287.779 57.3605 287.828 57.7723 287.627L57.7897 287.669Z"   fill="#727785" >
</path>
<path d="M82.2068 290.048C81.6769 290.16 81.2664 290.508 80.9787 290.916C80.6805 291.339 80.1326 291.759 79.5314 291.665C78.9302 291.571 78.9961 290.279 80.314 289.867C80.8592 289.696 81.3153 289.627 82.2068 290.048Z"   fill="#E5E6ED" >
</path>
<path d="M79.0071 291.516C79.4387 290.982 80.4189 289.944 81.5934 290.001C80.9769 289.965 79.9205 290.415 79.109 291.605L79.0071 291.516Z"   fill="#727785" >
</path>
<path d="M80.1459 290.475C80.1843 290.317 80.2895 289.995 80.5472 289.888C80.4113 289.943 80.2302 290.146 80.1768 290.484L80.1459 290.475Z"   fill="#727785" >
</path>
<path d="M80.5221 290.271C80.5998 290.303 80.7672 290.358 80.8999 290.281C80.8306 290.322 80.6851 290.337 80.5292 290.255L80.5221 290.271Z"   fill="#727785" >
</path>
<path d="M79.7241 290.808C79.7205 290.645 79.7392 290.307 79.9607 290.138C79.8435 290.226 79.721 290.469 79.7563 290.809L79.7241 290.808Z"   fill="#727785" >
</path>
<path d="M79.9356 290.645C80.0857 290.708 80.407 290.816 80.6464 290.672C80.5214 290.749 80.25 290.773 79.947 290.615L79.9356 290.645Z"   fill="#727785" >
</path>
<path d="M79.4354 291.138C79.6402 291.216 80.0803 291.346 80.4211 291.134C80.2431 291.247 79.8647 291.296 79.4529 291.095L79.4354 291.138Z"   fill="#727785" >
</path>
<path d="M70.5146 283.719C70.1193 284.09 69.9487 284.6 69.914 285.098C69.878 285.615 69.6271 286.258 69.064 286.488C68.5008 286.719 67.888 285.58 68.8016 284.545C69.1796 284.116 69.5341 283.821 70.5146 283.719Z"   fill="#E5E6ED" >
</path>
<path d="M68.5382 286.632C68.6306 285.952 68.9315 284.557 69.9653 283.997C69.4194 284.285 68.7491 285.218 68.6715 286.656L68.5382 286.632Z"   fill="#727785" >
</path>
<path d="M68.973 285.152C68.9239 284.997 68.847 284.667 69.012 284.442C68.9242 284.559 68.8748 284.827 69.004 285.144L68.973 285.152Z"   fill="#727785" >
</path>
<path d="M69.1889 284.783C69.2723 284.77 69.4439 284.73 69.5175 284.596C69.4795 284.667 69.3624 284.754 69.1867 284.765L69.1889 284.783Z"   fill="#727785" >
</path>
<path d="M68.785 285.656C68.6975 285.518 68.5383 285.219 68.6398 284.96C68.5851 285.096 68.6064 285.367 68.8127 285.64L68.785 285.656Z"   fill="#727785" >
</path>
<path d="M68.8812 285.406C69.0424 285.383 69.3727 285.308 69.5032 285.062C69.436 285.192 69.2164 285.353 68.8753 285.375L68.8812 285.406Z"   fill="#727785" >
</path>
<path d="M68.7086 286.087C68.9246 286.048 69.368 285.931 69.5499 285.573C69.4561 285.762 69.1578 286 68.7017 286.042L68.7086 286.087Z"   fill="#727785" >
</path>
<path d="M59.1225 284.186C59.3523 284.407 59.449 284.708 59.4658 285.002C59.4832 285.306 59.6261 285.686 59.9557 285.826C60.2854 285.966 60.6543 285.3 60.1243 284.684C59.905 284.429 59.6986 284.253 59.1225 284.186Z"   fill="#E5E6ED" >
</path>
<path d="M60.264 285.914C60.2146 285.513 60.0477 284.69 59.4436 284.353C59.7627 284.527 60.1503 285.08 60.1854 285.927L60.264 285.914Z"   fill="#727785" >
</path>
<path d="M60.019 285.04C60.049 284.949 60.0967 284.756 60.0012 284.622C60.0521 284.692 60.0791 284.85 60.0008 285.035L60.019 285.04Z"   fill="#727785" >
</path>
<path d="M59.8947 284.821C59.8457 284.813 59.745 284.789 59.7028 284.709C59.7246 284.751 59.7928 284.803 59.8961 284.811L59.8947 284.821Z"   fill="#727785" >
</path>
<path d="M60.126 285.338C60.1785 285.258 60.2743 285.083 60.2165 284.929C60.2477 285.01 60.2331 285.169 60.1098 285.328L60.126 285.338Z"   fill="#727785" >
</path>
<path d="M60.0712 285.191C59.9765 285.176 59.7827 285.129 59.7077 284.983C59.7463 285.06 59.8743 285.157 60.0749 285.172L60.0712 285.191Z"   fill="#727785" >
</path>
<path d="M60.1677 285.592C60.0409 285.568 59.7809 285.496 59.6765 285.284C59.7303 285.396 59.904 285.538 60.1721 285.566L60.1677 285.592Z"   fill="#727785" >
</path>
<path d="M78.1027 287.654C77.8728 287.875 77.7762 288.177 77.7594 288.47C77.742 288.774 77.5991 289.154 77.2694 289.294C76.9398 289.434 76.5709 288.768 77.1009 288.152C77.3202 287.898 77.5266 287.721 78.1027 287.654Z"   fill="#E5E6ED" >
</path>
<path d="M76.9612 289.383C77.0106 288.982 77.1774 288.159 77.7816 287.821C77.4625 287.995 77.0749 288.549 77.0398 289.395L76.9612 289.383Z"   fill="#727785" >
</path>
<path d="M77.2062 288.509C77.1762 288.418 77.1286 288.224 77.224 288.091C77.1732 288.16 77.1461 288.318 77.2244 288.503L77.2062 288.509Z"   fill="#727785" >
</path>
<path d="M77.3305 288.289C77.3795 288.282 77.4802 288.257 77.5225 288.177C77.5006 288.219 77.4324 288.272 77.3291 288.279L77.3305 288.289Z"   fill="#727785" >
</path>
<path d="M77.0992 288.806C77.0468 288.726 76.9509 288.551 77.0087 288.398C76.9775 288.478 76.9921 288.638 77.1154 288.796L77.0992 288.806Z"   fill="#727785" >
</path>
<path d="M77.1541 288.659C77.2487 288.644 77.4425 288.597 77.5175 288.451C77.4789 288.528 77.3509 288.625 77.1504 288.64L77.1541 288.659Z"   fill="#727785" >
</path>
<path d="M77.0574 289.06C77.1842 289.036 77.4443 288.964 77.5486 288.752C77.4949 288.864 77.3211 289.006 77.053 289.034L77.0574 289.06Z"   fill="#727785" >
</path>
<path d="M110.976 300L121.59 300C123.931 300 126.493 299.555 123.016 297.689C125.943 297.689 128.909 296.099 123.603 295.25C125.799 293.893 125.799 289.483 120.492 291.688C123.603 286.599 118.479 284.225 115.551 288.974C114.087 284.394 106.584 282.698 108.78 290.84C105.265 288.974 100.141 293.448 107.095 295.823C103.984 296.501 98.6784 300 110.976 300Z"   fill="#E9EBF2" >
</path>
<path d="M122.057 299.505L127.476 299.505C128.672 299.505 129.98 299.267 128.204 298.272C129.7 298.272 131.214 297.424 128.504 296.971C129.626 296.248 129.626 293.896 126.916 295.072C128.504 292.358 125.888 291.091 124.393 293.624C123.645 291.181 119.814 290.277 120.935 294.619C119.14 293.624 116.524 296.01 120.075 297.277C118.486 297.639 115.777 299.505 122.057 299.505Z"   fill="#DFE0E5" >
</path>
<path d="M102.018 286.58C102.548 286.692 102.959 287.04 103.247 287.448C103.545 287.871 104.093 288.291 104.694 288.197C105.295 288.102 105.229 286.811 103.911 286.398C103.366 286.228 102.91 286.159 102.018 286.58Z"   fill="#E5E6ED" >
</path>
<path d="M105.218 288.048C104.787 287.514 103.806 286.476 102.632 286.532C103.248 286.497 104.305 286.947 105.116 288.137L105.218 288.048Z"   fill="#727785" >
</path>
<path d="M104.079 287.007C104.041 286.849 103.936 286.527 103.678 286.42C103.814 286.475 103.995 286.678 104.048 287.016L104.079 287.007Z"   fill="#727785" >
</path>
<path d="M103.703 286.802C103.625 286.835 103.458 286.89 103.325 286.813C103.395 286.854 103.54 286.868 103.696 286.786L103.703 286.802Z"   fill="#727785" >
</path>
<path d="M104.501 287.34C104.505 287.177 104.486 286.839 104.264 286.669C104.382 286.757 104.504 287.001 104.469 287.341L104.501 287.34Z"   fill="#727785" >
</path>
<path d="M104.29 287.177C104.139 287.24 103.818 287.347 103.579 287.204C103.704 287.281 103.975 287.305 104.278 287.147L104.29 287.177Z"   fill="#727785" >
</path>
<path d="M104.79 287.669C104.585 287.748 104.145 287.878 103.804 287.666C103.982 287.779 104.36 287.828 104.772 287.627L104.79 287.669Z"   fill="#727785" >
</path>
<path d="M129.207 290.048C128.677 290.16 128.266 290.508 127.979 290.916C127.68 291.339 127.133 291.759 126.531 291.665C125.93 291.571 125.996 290.279 127.314 289.867C127.859 289.696 128.315 289.627 129.207 290.048Z"   fill="#E5E6ED" >
</path>
<path d="M126.007 291.516C126.439 290.982 127.419 289.944 128.593 290.001C127.977 289.965 126.921 290.415 126.109 291.605L126.007 291.516Z"   fill="#727785" >
</path>
<path d="M127.146 290.475C127.184 290.317 127.289 289.995 127.547 289.888C127.411 289.943 127.23 290.146 127.177 290.484L127.146 290.475Z"   fill="#727785" >
</path>
<path d="M127.522 290.271C127.6 290.303 127.767 290.358 127.9 290.281C127.831 290.322 127.685 290.337 127.529 290.255L127.522 290.271Z"   fill="#727785" >
</path>
<path d="M126.724 290.808C126.721 290.645 126.739 290.307 126.961 290.138C126.843 290.226 126.721 290.469 126.756 290.809L126.724 290.808Z"   fill="#727785" >
</path>
<path d="M126.936 290.645C127.086 290.708 127.407 290.816 127.646 290.672C127.521 290.749 127.25 290.773 126.947 290.615L126.936 290.645Z"   fill="#727785" >
</path>
<path d="M126.435 291.138C126.64 291.216 127.08 291.346 127.421 291.134C127.243 291.247 126.865 291.296 126.453 291.095L126.435 291.138Z"   fill="#727785" >
</path>
<path d="M117.515 283.719C117.119 284.09 116.949 284.6 116.914 285.098C116.878 285.615 116.627 286.258 116.064 286.488C115.501 286.719 114.888 285.58 115.802 284.545C116.18 284.116 116.534 283.821 117.515 283.719Z"   fill="#E5E6ED" >
</path>
<path d="M115.538 286.632C115.631 285.952 115.932 284.557 116.965 283.997C116.419 284.285 115.749 285.218 115.672 286.656L115.538 286.632Z"   fill="#727785" >
</path>
<path d="M115.973 285.152C115.924 284.997 115.847 284.667 116.012 284.442C115.924 284.559 115.875 284.827 116.004 285.144L115.973 285.152Z"   fill="#727785" >
</path>
<path d="M116.189 284.783C116.272 284.77 116.444 284.73 116.517 284.596C116.479 284.667 116.362 284.754 116.187 284.765L116.189 284.783Z"   fill="#727785" >
</path>
<path d="M115.785 285.656C115.697 285.518 115.538 285.219 115.64 284.96C115.585 285.096 115.606 285.367 115.813 285.64L115.785 285.656Z"   fill="#727785" >
</path>
<path d="M115.881 285.406C116.042 285.383 116.373 285.308 116.503 285.062C116.436 285.192 116.216 285.353 115.875 285.375L115.881 285.406Z"   fill="#727785" >
</path>
<path d="M115.709 286.087C115.925 286.048 116.368 285.931 116.55 285.573C116.456 285.762 116.158 286 115.702 286.042L115.709 286.087Z"   fill="#727785" >
</path>
<path d="M106.122 284.186C106.352 284.407 106.449 284.708 106.466 285.002C106.483 285.306 106.626 285.686 106.956 285.826C107.285 285.966 107.654 285.3 107.124 284.684C106.905 284.429 106.699 284.253 106.122 284.186Z"   fill="#E5E6ED" >
</path>
<path d="M107.264 285.914C107.215 285.513 107.048 284.69 106.444 284.353C106.763 284.527 107.15 285.08 107.185 285.927L107.264 285.914Z"   fill="#727785" >
</path>
<path d="M107.019 285.04C107.049 284.949 107.097 284.756 107.001 284.622C107.052 284.692 107.079 284.85 107.001 285.035L107.019 285.04Z"   fill="#727785" >
</path>
<path d="M106.895 284.821C106.846 284.813 106.745 284.789 106.703 284.709C106.725 284.751 106.793 284.803 106.896 284.811L106.895 284.821Z"   fill="#727785" >
</path>
<path d="M107.126 285.338C107.178 285.258 107.274 285.083 107.216 284.929C107.248 285.01 107.233 285.169 107.11 285.328L107.126 285.338Z"   fill="#727785" >
</path>
<path d="M107.071 285.191C106.976 285.176 106.783 285.129 106.708 284.983C106.746 285.06 106.874 285.157 107.075 285.172L107.071 285.191Z"   fill="#727785" >
</path>
<path d="M107.168 285.592C107.041 285.568 106.781 285.496 106.677 285.284C106.73 285.396 106.904 285.538 107.172 285.566L107.168 285.592Z"   fill="#727785" >
</path>
<path d="M125.103 287.654C124.873 287.875 124.776 288.177 124.759 288.47C124.742 288.774 124.599 289.154 124.269 289.294C123.94 289.434 123.571 288.768 124.101 288.152C124.32 287.898 124.527 287.721 125.103 287.654Z"   fill="#E5E6ED" >
</path>
<path d="M123.961 289.383C124.011 288.982 124.177 288.159 124.782 287.821C124.462 287.995 124.075 288.549 124.04 289.395L123.961 289.383Z"   fill="#727785" >
</path>
<path d="M124.206 288.509C124.176 288.418 124.129 288.224 124.224 288.091C124.173 288.16 124.146 288.318 124.224 288.503L124.206 288.509Z"   fill="#727785" >
</path>
<path d="M124.33 288.289C124.379 288.282 124.48 288.257 124.522 288.177C124.501 288.219 124.432 288.272 124.329 288.279L124.33 288.289Z"   fill="#727785" >
</path>
<path d="M124.099 288.806C124.047 288.726 123.951 288.551 124.009 288.398C123.978 288.478 123.992 288.638 124.115 288.796L124.099 288.806Z"   fill="#727785" >
</path>
<path d="M124.154 288.659C124.249 288.644 124.443 288.597 124.518 288.451C124.479 288.528 124.351 288.625 124.15 288.64L124.154 288.659Z"   fill="#727785" >
</path>
<path d="M124.057 289.06C124.184 289.036 124.444 288.964 124.549 288.752C124.495 288.864 124.321 289.006 124.053 289.034L124.057 289.06Z"   fill="#727785" >
</path>
<path d="M101.705 251L107.872 251L121.887 294.728L87.6895 294.728L101.705 251Z"   fill="#FFFFFF" >
</path>
<path d="M107.872 251L101.705 251L96.0448 268.659L113.532 268.659L107.872 251ZM115.15 273.709L94.4262 273.709L92.3613 280.152L117.215 280.152L115.15 273.709ZM118.834 285.202L90.7427 285.202L87.6895 294.728L121.887 294.728L118.834 285.202Z" fill-rule="evenodd"  fill="#2F63FF" >
</path>
<rect x="79" y="294.7278747558594" width="51.58" height="3.92"   fill="#2F63FF" >
</rect>
<path d="M120.539 290.523L89.0371 290.523L87.691 294.723L121.885 294.723L120.539 290.523Z" fill-rule="evenodd"  fill="#000000" fill-opacity="0.2">
</path>
<g mask="url(#mask-qt8fjw3dwzsyyptpcfgnf)">
<circle cx="72.27022460937499" cy="240.34593872070312" r="52.415"   fill="#FFFFFF" fill-opacity="0.2">
</circle>
</g>
<path    stroke="rgba(32, 36, 46, 1)" stroke-width="4" stroke-linejoin="round" stroke-linecap="round"  d="M2 300L402 300">
</path>
<rect x="148.21429443359375" y="164" width="5.64" height="134"   fill="#20242E" >
</rect>
<rect x="143" y="164" width="8" height="134"   fill="#334680" >
</rect>
<rect x="256.14288330078125" y="164" width="5.64" height="134"   fill="#20242E" >
</rect>
<rect x="251" y="164" width="8" height="134"   fill="#334680" >
</rect>
<rect x="123" y="175" width="158" height="22.57"   fill="#2F63FF" >
</rect>
<path d="M133.098 175L123 175L123 197.57L124.189 197.57L133.098 175ZM137.167 197.57L146.076 175L163.005 175L154.096 197.57L137.167 197.57ZM167.074 197.57L184.003 197.57L192.912 175L175.983 175L167.074 197.57ZM205.891 175L196.981 197.57L213.91 197.57L222.819 175L205.891 175ZM235.798 175L226.889 197.57L243.817 197.57L252.726 175L235.798 175ZM265.705 175L256.796 197.57L273.724 197.57L281 179.138L281 175L265.705 175Z" fill-rule="evenodd"  fill="#FFFFFF" >
</path>
<g opacity="0.2">
<path d="M185.22 197.57L198.25 175L220.19 175L233.22 197.57L185.22 197.57Z" fill-rule="evenodd"  fill="#20242E" >
</path>
</g>
<g opacity="0.2">
<rect x="123" y="175" width="158" height="2.39"   fill="#20242E" >
</rect>
</g>
<rect x="123" y="216" width="158" height="22.57"   fill="#2F63FF" >
</rect>
<path d="M133.098 216L123 216L123 238.57L124.189 238.57L133.098 216ZM137.167 238.57L146.076 216L163.005 216L154.096 238.57L137.167 238.57ZM167.074 238.57L184.003 238.57L192.912 216L175.983 216L167.074 238.57ZM205.891 216L196.981 238.57L213.91 238.57L222.819 216L205.891 216ZM235.798 216L226.889 238.57L243.817 238.57L252.726 216L235.798 216ZM265.705 216L256.796 238.57L273.724 238.57L281 220.138L281 216L265.705 216Z" fill-rule="evenodd"  fill="#FFFFFF" >
</path>
<g opacity="0.2">
<path d="M244.016 216L248.061 223.007C251.223 228.484 247.271 235.33 240.946 235.33L175.493 235.33C169.169 235.33 165.217 228.484 168.379 223.007L172.424 216L244.016 216Z" fill-rule="evenodd"  fill="#20242E" >
</path>
</g>
<g opacity="0.2">
<rect x="123" y="216" width="158" height="2.39"   fill="#20242E" >
</rect>
</g>
<path     fill="#2854D9"  d="M209.884 162.872L242.61 219.556C245.772 225.033 241.82 231.879 235.496 231.879L170.043 231.879C163.719 231.879 159.766 225.033 162.928 219.556L195.655 162.872C198.817 157.395 206.722 157.395 209.884 162.872Z">
</path>
<path     fill="#FFFFFF"  d="M208.335 161.323L241.061 218.007C244.223 223.484 240.271 230.33 233.947 230.33L168.493 230.33C162.169 230.33 158.217 223.484 161.379 218.007L194.105 161.323C197.267 155.846 205.173 155.846 208.335 161.323Z">
</path>
<path fill-rule="evenodd"  fill="rgba(47, 99, 255, 1)"  d="M241.061 218.007L208.335 161.323C205.173 155.846 197.267 155.846 194.105 161.323L161.379 218.007C158.217 223.484 162.169 230.33 168.493 230.33L233.947 230.33C240.271 230.33 244.223 223.484 241.061 218.007ZM197.178 163.097C198.974 159.986 203.466 159.986 205.262 163.097L237.988 219.781C239.785 222.893 237.539 226.782 233.947 226.782L168.493 226.782C164.901 226.782 162.655 222.893 164.452 219.781L197.178 163.097Z">
</path>
<g >
<text transform="translate(177.70709228515625, 193)">
<tspan x="0" y="27.10890625" font-size="30" line-height="33.71"  fill="#2F63FF"  font-family="Roboto-Regular" letter-spacing="0" >
403</tspan>
</text>
</g>
<g >
<text transform="translate(187.8033447265625, 166.74058532714844)">
<tspan x="0" y="28.457342803955076" font-size="26.610877990722656" line-height="33.71"  fill="#2F63FF"  font-family="SourceHanSansCN-Regular" letter-spacing="0" >
！</tspan>
</text>
</g>
<defs>
<mask id="mask-qt8fjw3dwzsyyptpcfgnf" style="mask-type:alpha" maskUnits="userSpaceOnUse">
<path d="M107.872 251L101.705 251L96.0448 268.659L113.532 268.659L107.872 251ZM115.15 273.709L94.4262 273.709L92.3613 280.152L117.215 280.152L115.15 273.709ZM118.834 285.202L90.7427 285.202L87.6895 294.728L121.887 294.728L118.834 285.202Z" fill-rule="evenodd"  fill="#2F63FF" >
</path>
<rect x="79" y="294.7278747558594" width="51.58" height="3.92"   fill="#2F63FF" >
</rect>
<path d="M120.539 290.523L89.0371 290.523L87.691 294.723L121.885 294.723L120.539 290.523Z" fill-rule="evenodd"  fill="#000000" fill-opacity="0.2">
</path>
</mask>
</defs>
</svg>
