<svg xmlns="http://www.w3.org/2000/svg" xmlns:xlink="http://www.w3.org/1999/xlink" width="404" height="302.0001220703125" viewBox="0 0 404 302.0001220703125" fill="none">
<path d="M316.902 300C338.807 273.926 352 240.29 352 203.571C352 120.729 284.843 53.5714 202 53.5714C119.157 53.5714 52 120.729 52 203.571C52 240.29 65.1931 273.926 87.0976 300L316.902 300Z" fill-rule="evenodd"  fill="#F0F3FD" >
</path>
<g opacity="0.15">
<path d="M263.488 159.639L261.579 161.909C261.415 162.104 261.309 162.34 261.272 162.592L256.451 195.407C256.36 196.022 256.695 196.62 257.266 196.865L261.579 198.713C261.758 198.79 261.941 198.825 262.119 198.825L262.119 209.295C262.119 209.673 262.425 209.98 262.804 209.98C263.182 209.98 263.489 209.673 263.489 209.295L263.489 190.115C263.489 190.108 263.489 190.102 263.488 190.095L263.488 159.639Z" fill-rule="evenodd"  fill="#A4A4A4" >
</path>
<path d="M263.488 158.954L261.579 161.224C261.415 161.419 261.309 161.655 261.272 161.907L256.451 194.722C256.36 195.337 256.695 195.935 257.266 196.18L261.579 198.028C261.758 198.105 261.941 198.141 262.119 198.141L262.119 208.61C262.119 208.988 262.425 209.295 262.804 209.295C263.182 209.295 263.489 208.988 263.489 208.61L263.489 189.43C263.489 189.425 263.489 189.419 263.488 189.414L263.488 158.954Z" fill-rule="evenodd"  fill="#C4C4C4" >
</path>
<path d="M219.826 233.09L222.747 233.608C222.998 233.652 223.256 233.626 223.492 233.533L254.321 221.3C254.899 221.071 255.25 220.482 255.176 219.865L254.621 215.206C254.598 215.013 254.537 214.837 254.448 214.682L263.515 209.448C263.842 209.258 263.955 208.84 263.766 208.512C263.576 208.184 263.157 208.072 262.83 208.261L246.219 217.851C246.215 217.854 246.21 217.857 246.206 217.859L219.826 233.09Z" fill-rule="evenodd"  fill="#A4A4A4" >
</path>
<path d="M219.484 232.747L222.405 233.266C222.655 233.31 222.913 233.284 223.149 233.19L253.979 220.958C254.556 220.729 254.907 220.139 254.834 219.522L254.278 214.863C254.255 214.67 254.194 214.494 254.105 214.34L263.172 209.105C263.5 208.916 263.612 208.497 263.423 208.169C263.234 207.842 262.815 207.729 262.487 207.919L245.877 217.509C245.871 217.512 245.865 217.515 245.86 217.519L219.484 232.747Z" fill-rule="evenodd"  fill="#C4C4C4" >
</path>
<path d="M305.712 234.745L304.7 231.956C304.614 231.717 304.462 231.507 304.263 231.349L278.254 210.766C277.767 210.381 277.082 210.372 276.584 210.744L272.827 213.555C272.671 213.671 272.549 213.812 272.46 213.966L263.393 208.731C263.065 208.542 262.646 208.654 262.457 208.982C262.268 209.31 262.38 209.728 262.708 209.918L279.318 219.508C279.324 219.511 279.33 219.514 279.336 219.517L305.712 234.745Z" fill-rule="evenodd"  fill="#A4A4A4" >
</path>
<path d="M305.712 234.061L304.7 231.272C304.614 231.032 304.462 230.822 304.263 230.665L278.255 210.082C277.767 209.696 277.082 209.687 276.584 210.059L272.827 212.87C272.671 212.986 272.549 213.127 272.46 213.281L263.393 208.046C263.065 207.857 262.647 207.969 262.457 208.297C262.268 208.625 262.38 209.044 262.708 209.233L279.318 218.823C279.324 218.826 279.33 218.829 279.336 218.832L305.712 234.061Z" fill-rule="evenodd"  fill="#C4C4C4" >
</path>
<path d="M264.564 211.381C265.543 210.963 266.229 209.992 266.229 208.86C266.229 207.347 265.002 206.12 263.489 206.12C261.976 206.12 260.749 207.347 260.749 208.86C260.749 209.991 261.434 210.962 262.413 211.381L256.982 302L269.995 302L264.564 211.381Z" fill-rule="evenodd"  fill="#A4A4A4" >
</path>
<path d="M263.879 211.381C264.858 210.963 265.544 209.992 265.544 208.86C265.544 207.347 264.317 206.12 262.804 206.12C261.291 206.12 260.064 207.347 260.064 208.86C260.064 209.991 260.75 210.962 261.728 211.38L256.297 302L269.31 302L263.879 211.381Z" fill-rule="evenodd"  fill="#C4C4C4" >
</path>
</g>
<g opacity="0.6">
<rect  x="56" y="176" width="26.71" height="63" rx="13.355"    fill="#E9EBF2" >
</rect>
<rect  x="68.75885009765625" y="201.5177001953125" width="1.59" height="98.48" rx="0.795"    fill="#E1E2E5" >
</rect>
<rect  x="75.33843994140625" y="205.0194091796875" width="1.59" height="13.44" transform="rotate(30.000000445292045 75.33843994140625 205.0194091796875)" rx="0.795"    fill="#E1E2E5" >
</rect>
<rect  transform="matrix(0.8660253882408142, -0.5, -0.5, -0.8660253882408142, 69.20086669921875, 226.4903564453125)" x="0" y="0" width="1.59" height="18.91" rx="0.795"    fill="#E1E2E5" >
</rect>
</g>
<rect  x="91" y="124" width="38.2" height="90.08" rx="19.1"    fill="#E9EBF2" >
</rect>
<rect  x="109.2445068359375" y="160.4888916015625" width="2.28" height="140.82" rx="1.14"    fill="#E1E2E5" >
</rect>
<rect  x="118.6529541015625" y="165.496337890625" width="2.28" height="19.22" transform="rotate(30.000000445292045 118.6529541015625 165.496337890625)" rx="1.14"    fill="#E1E2E5" >
</rect>
<rect  transform="matrix(0.8660253882408142, -0.5, -0.5, -0.8660253882408142, 109.87652587890625, 196.198486328125)" x="0" y="0" width="2.28" height="27.04" rx="1.14"    fill="#E1E2E5" >
</rect>
<g opacity="0.8">
<path d="M141.993 103.138C141.995 103.069 141.996 103 141.996 102.93C141.996 98.5504 138.445 95 134.066 95C129.686 95 126.136 98.5504 126.136 102.93C126.136 103 126.136 103.069 126.138 103.138C126.069 103.136 126 103.136 125.93 103.136C121.55 103.136 118 106.686 118 111.066C118 115.445 121.55 118.996 125.93 118.996C125.999 118.996 126.067 118.995 126.136 118.993L126.136 119L141.996 119L141.996 118.993C146.282 118.886 149.724 115.378 149.724 111.066C149.724 106.752 146.281 103.243 141.993 103.138Z" fill-rule="evenodd"  fill="#FFFFFF" >
</path>
</g>
<g opacity="0.6">
<path d="M288.101 127.001C288.102 126.967 288.103 126.932 288.103 126.897C288.103 124.688 286.312 122.897 284.103 122.897C281.894 122.897 280.103 124.688 280.103 126.897C280.103 126.932 280.103 126.967 280.104 127.001C280.069 127 280.035 127 280 127C277.791 127 276 128.791 276 131C276 133.209 277.791 135 280 135C280.057 135 280.114 134.999 280.171 134.996L287.829 134.996C287.885 134.999 287.943 135 288 135C290.209 135 292 133.209 292 131C292 128.825 290.264 127.055 288.101 127.001Z" fill-rule="evenodd"  fill="#FFFFFF" >
</path>
</g>
<path d="M245.788 75.6872C243.805 71.1616 239.287 68 234.03 68C226.944 68 221.2 73.7442 221.2 80.83C221.2 80.93 221.201 81.0298 221.203 81.1293C218.235 81.7303 216 84.3541 216 87.5C216 91.0899 218.91 94 222.5 94L260.98 94C264.57 94 267.48 91.0899 267.48 87.5C267.48 83.9101 264.57 81 260.98 81L258.042 81C257.517 77.1911 254.249 74.2576 250.296 74.2576C248.617 74.2576 247.062 74.7867 245.788 75.6872Z" fill-rule="evenodd"  fill="#FFFFFF" >
</path>
<g opacity="0.6">
<path d="M143.153 164.135C142.344 162.289 140.5 161 138.356 161C135.465 161 133.121 163.344 133.121 166.235C133.121 166.275 133.122 166.315 133.123 166.355C131.912 166.6 131 167.67 131 168.953C131 170.417 132.186 171.603 133.65 171.603L149.35 171.603C150.814 171.603 152 170.417 152 168.953C152 167.489 150.814 166.303 149.35 166.303L148.15 166.303C147.936 164.749 146.603 163.553 144.99 163.553C144.306 163.553 143.672 163.768 143.153 164.135Z" fill-rule="evenodd"  fill="#FFFFFF" >
</path>
</g>
<path d="M320.385 78.1396L317.382 81.71C317.124 82.016 316.957 82.3876 316.899 82.7832L309.318 134.384C309.176 135.351 309.702 136.292 310.6 136.677L317.382 139.584C317.663 139.704 317.951 139.76 318.231 139.76L318.231 156.221C318.231 156.815 318.712 157.296 319.306 157.296C319.899 157.296 320.381 156.815 320.381 156.221L320.381 137.735C320.383 137.692 320.385 137.648 320.385 137.604L320.385 78.1396Z" fill-rule="evenodd"  fill="#DCDFE5" >
</path>
<path d="M320.385 77.0627L317.382 80.6331C317.124 80.9391 316.957 81.3107 316.899 81.7063L309.318 133.307C309.176 134.274 309.702 135.215 310.6 135.6L317.382 138.507C317.663 138.627 317.951 138.683 318.231 138.683L318.231 155.144C318.231 155.738 318.712 156.219 319.306 156.219C319.899 156.219 320.381 155.738 320.381 155.144L320.381 136.66C320.383 136.616 320.385 136.572 320.385 136.527L320.385 77.0627Z" fill-rule="evenodd"  fill="#E9EBF2" >
</path>
<path d="M251.727 193.64L256.32 194.455C256.714 194.525 257.119 194.484 257.491 194.336L305.969 175.101C306.878 174.741 307.43 173.815 307.314 172.844L306.44 165.518C306.404 165.214 306.309 164.937 306.169 164.695L320.424 156.464C320.938 156.168 321.114 155.51 320.817 154.996C320.52 154.482 319.863 154.306 319.349 154.602L303.34 163.845C303.301 163.865 303.263 163.885 303.224 163.907L251.727 193.64Z" fill-rule="evenodd"  fill="#DCDFE5" >
</path>
<path d="M251.188 193.101L255.782 193.917C256.175 193.986 256.581 193.945 256.952 193.798L305.431 174.563C306.339 174.203 306.891 173.276 306.775 172.306L305.902 164.979C305.865 164.676 305.77 164.399 305.63 164.156L319.886 155.926C320.4 155.629 320.576 154.972 320.279 154.457C319.982 153.943 319.325 153.767 318.811 154.064L302.803 163.306C302.764 163.326 302.725 163.347 302.686 163.369L251.188 193.101Z" fill-rule="evenodd"  fill="#E9EBF2" >
</path>
<path d="M386.78 196.244L385.189 191.858C385.053 191.482 384.815 191.152 384.501 190.904L343.604 158.537C342.838 157.931 341.759 157.916 340.977 158.502L335.069 162.922C334.824 163.105 334.632 163.326 334.492 163.568L320.237 155.338C319.723 155.041 319.065 155.217 318.768 155.731C318.471 156.246 318.648 156.903 319.162 157.2L335.169 166.442C335.206 166.466 335.244 166.489 335.282 166.512L386.78 196.244Z" fill-rule="evenodd"  fill="#DCDFE5" >
</path>
<path d="M386.78 195.167L385.189 190.781C385.053 190.405 384.815 190.075 384.501 189.827L343.604 157.46C342.838 156.854 341.759 156.839 340.977 157.425L335.069 161.845C334.824 162.028 334.632 162.249 334.492 162.491L320.237 154.261C319.722 153.964 319.065 154.14 318.768 154.654C318.471 155.169 318.647 155.826 319.162 156.123L335.169 165.365C335.206 165.389 335.243 165.412 335.282 165.435L386.78 195.167Z" fill-rule="evenodd"  fill="#E9EBF2" >
</path>
<path d="M322.076 159.507C323.617 158.85 324.697 157.321 324.697 155.541C324.697 153.16 322.767 151.231 320.387 151.231C318.007 151.231 316.077 153.16 316.077 155.541C316.077 157.32 317.155 158.847 318.693 159.505L310.154 302L330.615 302L322.076 159.507Z" fill-rule="evenodd"  fill="#DCDFE5" >
</path>
<path d="M321 159.507C322.54 158.85 323.62 157.321 323.62 155.541C323.62 153.16 321.69 151.231 319.31 151.231C316.93 151.231 315 153.16 315 155.541C315 157.32 316.078 158.847 317.616 159.505L309.077 302L329.538 302L321 159.507Z" fill-rule="evenodd"  fill="#E9EBF2" >
</path>
<path d="M320.967 299L331.906 299C334.319 299 336.96 298.521 333.376 296.512C336.394 296.512 339.45 294.8 333.981 293.887C336.244 292.427 336.244 287.679 330.775 290.053C333.981 284.575 328.7 282.019 325.683 287.131C324.174 282.201 316.441 280.375 318.704 289.14C315.082 287.131 309.801 291.947 316.968 294.503C313.761 295.234 308.293 299 320.967 299Z"   fill="#D7D8DE" >
</path>
<path d="M272.967 299L283.906 299C286.319 299 288.96 298.521 285.376 296.512C288.394 296.512 291.45 294.8 285.981 293.887C288.244 292.427 288.244 287.679 282.775 290.053C285.981 284.575 280.7 282.019 277.683 287.131C276.174 282.201 268.441 280.375 270.704 289.14C267.082 287.131 261.801 291.947 268.968 294.503C265.761 295.234 260.293 299 272.967 299Z"   fill="#D7D8DE" >
</path>
<path d="M295.116 300L316.538 300C321.263 300 326.434 299.101 319.416 295.335C325.326 295.335 331.312 292.126 320.601 290.414C325.033 287.675 325.033 278.774 314.322 283.224C320.601 272.953 310.259 268.16 304.35 277.746C301.395 268.503 286.252 265.079 290.684 281.512C283.59 277.746 273.248 286.776 287.283 291.569C281.004 292.938 270.296 300 295.116 300Z"   fill="#E1E1E5" >
</path>
<path d="M271.992 277.143C272.842 277.83 273.26 278.833 273.403 279.831C273.552 280.865 274.151 282.123 275.318 282.504C276.486 282.886 277.552 280.504 275.561 278.553C274.738 277.746 273.981 277.205 271.992 277.143Z"   fill="#E5E6ED" >
</path>
<path d="M276.398 282.717C276.112 281.361 275.302 278.597 273.138 277.621C274.28 278.122 275.766 279.9 276.133 282.784L276.398 282.717Z"   fill="#727785" >
</path>
<path d="M275.306 279.802C275.382 279.482 275.488 278.806 275.123 278.378C275.317 278.601 275.455 279.133 275.242 279.789L275.306 279.802Z"   fill="#727785" >
</path>
<path d="M274.817 279.089C274.647 279.076 274.296 279.021 274.128 278.761C274.215 278.899 274.463 279.058 274.819 279.054L274.817 279.089Z"   fill="#727785" >
</path>
<path d="M275.758 280.787C275.914 280.498 276.19 279.873 275.948 279.365C276.078 279.63 276.075 280.18 275.7 280.759L275.758 280.787Z"   fill="#727785" >
</path>
<path d="M275.528 280.3C275.2 280.276 274.524 280.174 274.225 279.697C274.379 279.949 274.845 280.241 275.535 280.235L275.528 280.3Z"   fill="#727785" >
</path>
<path d="M275.975 281.644C275.534 281.598 274.625 281.427 274.206 280.734C274.423 281.1 275.058 281.535 275.982 281.552L275.975 281.644Z"   fill="#727785" >
</path>
<path d="M334.489 280.531C333.419 280.757 332.591 281.46 332.01 282.284C331.408 283.137 330.303 283.986 329.089 283.795C327.876 283.604 328.009 280.997 330.669 280.165C331.769 279.821 332.69 279.682 334.489 280.531Z"   fill="#E5E6ED" >
</path>
<path d="M328.031 283.494C328.902 282.416 330.88 280.322 333.251 280.436C332.006 280.363 329.874 281.272 328.236 283.674L328.031 283.494Z"   fill="#727785" >
</path>
<path d="M330.329 281.393C330.407 281.074 330.619 280.424 331.139 280.208C330.865 280.319 330.499 280.73 330.392 281.411L330.329 281.393Z"   fill="#727785" >
</path>
<path d="M331.089 280.981C331.245 281.047 331.583 281.157 331.851 281.002C331.711 281.085 331.418 281.114 331.103 280.949L331.089 280.981Z"   fill="#727785" >
</path>
<path d="M329.478 282.066C329.471 281.737 329.509 281.055 329.956 280.712C329.719 280.89 329.472 281.381 329.543 282.067L329.478 282.066Z"   fill="#727785" >
</path>
<path d="M329.905 281.736C330.208 281.864 330.856 282.08 331.339 281.791C331.087 281.946 330.539 281.994 329.928 281.675L329.905 281.736Z"   fill="#727785" >
</path>
<path d="M328.895 282.73C329.309 282.889 330.197 283.15 330.885 282.723C330.526 282.951 329.762 283.05 328.931 282.645L328.895 282.73Z"   fill="#727785" >
</path>
<path d="M310.313 263.14C309.516 263.888 309.171 264.918 309.101 265.924C309.029 266.965 308.522 268.264 307.386 268.729C306.249 269.195 305.012 266.896 306.856 264.806C307.619 263.942 308.334 263.346 310.313 263.14Z"   fill="#E5E6ED" >
</path>
<path d="M306.324 269.02C306.511 267.647 307.118 264.831 309.205 263.7C308.103 264.283 306.75 266.164 306.594 269.067L306.324 269.02Z"   fill="#727785" >
</path>
<path d="M307.202 266.033C307.103 265.719 306.948 265.053 307.281 264.599C307.103 264.836 307.004 265.377 307.265 266.016L307.202 266.033Z"   fill="#727785" >
</path>
<path d="M307.638 265.286C307.806 265.261 308.152 265.181 308.301 264.909C308.224 265.053 307.988 265.23 307.633 265.251L307.638 265.286Z"   fill="#727785" >
</path>
<path d="M306.822 267.049C306.646 266.771 306.325 266.168 306.529 265.644C306.419 265.918 306.462 266.466 306.878 267.016L306.822 267.049Z"   fill="#727785" >
</path>
<path d="M307.017 266.546C307.342 266.498 308.009 266.347 308.272 265.85C308.137 266.112 307.693 266.438 307.005 266.482L307.017 266.546Z"   fill="#727785" >
</path>
<path d="M306.668 267.919C307.104 267.841 307.999 267.604 308.366 266.882C308.177 267.263 307.575 267.744 306.654 267.828L306.668 267.919Z"   fill="#727785" >
</path>
<path d="M286.807 265.082C287.271 265.528 287.466 266.137 287.5 266.729C287.535 267.342 287.824 268.11 288.489 268.392C289.155 268.674 289.899 267.331 288.829 266.088C288.387 265.573 287.97 265.218 286.807 265.082Z"   fill="#E5E6ED" >
</path>
<path d="M289.112 268.571C289.012 267.761 288.675 266.1 287.456 265.42C288.1 265.771 288.882 266.888 288.953 268.597L289.112 268.571Z"   fill="#727785" >
</path>
<path d="M288.617 266.807C288.678 266.623 288.774 266.232 288.581 265.963C288.684 266.103 288.738 266.422 288.58 266.796L288.617 266.807Z"   fill="#727785" >
</path>
<path d="M288.366 266.364C288.267 266.348 288.064 266.299 287.979 266.138C288.023 266.223 288.16 266.328 288.369 266.344L288.366 266.364Z"   fill="#727785" >
</path>
<path d="M288.833 267.407C288.939 267.245 289.132 266.893 289.016 266.583C289.078 266.745 289.049 267.067 288.8 267.388L288.833 267.407Z"   fill="#727785" >
</path>
<path d="M288.722 267.11C288.531 267.08 288.14 266.986 287.989 266.691C288.067 266.847 288.325 267.042 288.73 267.072L288.722 267.11Z"   fill="#727785" >
</path>
<path d="M288.917 267.921C288.661 267.871 288.136 267.725 287.926 267.298C288.034 267.524 288.385 267.811 288.926 267.867L288.917 267.921Z"   fill="#727785" >
</path>
<path d="M64.9758 300L75.5896 300C77.9306 300 80.4925 299.555 77.0156 297.689C79.9435 297.689 82.9094 296.099 77.6025 295.25C79.7985 293.893 79.7985 289.483 74.4916 291.688C77.6025 286.6 72.4786 284.225 69.5507 288.974C68.0867 284.394 60.5839 282.698 62.7798 290.84C59.2649 288.974 54.141 293.448 61.0949 295.823C57.984 296.501 52.6784 300 64.9758 300Z"   fill="#EDEEF2" >
</path>
<path d="M76.0565 299.505L81.4763 299.505C82.6717 299.505 83.98 299.267 82.2045 298.272C83.6996 298.272 85.2141 297.424 82.5042 296.971C83.6256 296.248 83.6256 293.896 80.9157 295.072C82.5042 292.358 79.8878 291.091 78.3926 293.624C77.6451 291.181 73.8138 290.277 74.9352 294.619C73.1403 293.624 70.5239 296.01 74.0748 297.277C72.4862 297.639 69.777 299.505 76.0565 299.505Z"   fill="#DFE0E5" >
</path>
<path d="M56.0183 286.58C56.5483 286.692 56.9587 287.04 57.2465 287.448C57.5447 287.871 58.0925 288.291 58.6938 288.197C59.295 288.102 59.2291 286.811 57.9112 286.399C57.3659 286.228 56.9099 286.159 56.0183 286.58Z"   fill="#E5E6ED" >
</path>
<path d="M59.2181 288.048C58.7865 287.514 57.8063 286.476 56.6318 286.532C57.2484 286.497 58.3047 286.947 59.1162 288.137L59.2181 288.048Z"   fill="#727785" >
</path>
<path d="M58.0794 287.007C58.0409 286.849 57.9357 286.527 57.678 286.42C57.8139 286.474 57.995 286.678 58.0485 287.016L58.0794 287.007Z"   fill="#727785" >
</path>
<path d="M57.7031 286.803C57.6254 286.835 57.458 286.89 57.3253 286.813C57.3946 286.854 57.5401 286.868 57.696 286.787L57.7031 286.803Z"   fill="#727785" >
</path>
<path d="M58.501 287.34C58.5046 287.177 58.4859 286.839 58.2645 286.669C58.3817 286.757 58.5041 287.001 58.4689 287.341L58.501 287.34Z"   fill="#727785" >
</path>
<path d="M58.2895 287.177C58.1394 287.24 57.8182 287.347 57.5788 287.204C57.7038 287.281 57.9752 287.305 58.2782 287.147L58.2895 287.177Z"   fill="#727785" >
</path>
<path d="M58.7897 287.669C58.5849 287.748 58.1448 287.877 57.804 287.666C57.982 287.779 58.3605 287.828 58.7723 287.627L58.7897 287.669Z"   fill="#727785" >
</path>
<path d="M83.2068 290.048C82.6769 290.16 82.2664 290.508 81.9787 290.916C81.6805 291.339 81.1326 291.759 80.5314 291.665C79.9302 291.571 79.9961 290.279 81.314 289.867C81.8592 289.696 82.3153 289.627 83.2068 290.048Z"   fill="#E5E6ED" >
</path>
<path d="M80.0071 291.516C80.4387 290.982 81.4189 289.944 82.5934 290.001C81.9769 289.965 80.9205 290.415 80.109 291.605L80.0071 291.516Z"   fill="#727785" >
</path>
<path d="M81.1459 290.475C81.1843 290.317 81.2895 289.995 81.5472 289.888C81.4113 289.943 81.2302 290.146 81.1768 290.484L81.1459 290.475Z"   fill="#727785" >
</path>
<path d="M81.5221 290.271C81.5998 290.303 81.7672 290.358 81.8999 290.281C81.8306 290.322 81.6851 290.337 81.5292 290.255L81.5221 290.271Z"   fill="#727785" >
</path>
<path d="M80.7241 290.808C80.7205 290.645 80.7392 290.307 80.9607 290.138C80.8435 290.226 80.721 290.469 80.7563 290.809L80.7241 290.808Z"   fill="#727785" >
</path>
<path d="M80.9356 290.645C81.0857 290.708 81.407 290.816 81.6464 290.672C81.5214 290.749 81.25 290.773 80.947 290.615L80.9356 290.645Z"   fill="#727785" >
</path>
<path d="M80.4354 291.138C80.6402 291.216 81.0803 291.346 81.4211 291.134C81.2431 291.247 80.8647 291.296 80.4529 291.095L80.4354 291.138Z"   fill="#727785" >
</path>
<path d="M71.5146 283.719C71.1193 284.09 70.9487 284.6 70.914 285.098C70.878 285.615 70.6271 286.258 70.064 286.488C69.5008 286.719 68.888 285.58 69.8016 284.545C70.1796 284.116 70.5341 283.821 71.5146 283.719Z"   fill="#E5E6ED" >
</path>
<path d="M69.5382 286.632C69.6306 285.952 69.9315 284.557 70.9653 283.997C70.4194 284.285 69.7491 285.218 69.6715 286.656L69.5382 286.632Z"   fill="#727785" >
</path>
<path d="M69.973 285.152C69.9239 284.997 69.847 284.667 70.012 284.442C69.9242 284.559 69.8748 284.827 70.004 285.144L69.973 285.152Z"   fill="#727785" >
</path>
<path d="M70.1889 284.783C70.2723 284.77 70.4439 284.73 70.5175 284.596C70.4795 284.667 70.3624 284.754 70.1867 284.765L70.1889 284.783Z"   fill="#727785" >
</path>
<path d="M69.785 285.656C69.6975 285.518 69.5383 285.219 69.6398 284.96C69.5851 285.096 69.6064 285.367 69.8127 285.64L69.785 285.656Z"   fill="#727785" >
</path>
<path d="M69.8812 285.407C70.0424 285.383 70.3727 285.308 70.5032 285.062C70.436 285.192 70.2164 285.353 69.8753 285.375L69.8812 285.407Z"   fill="#727785" >
</path>
<path d="M69.7086 286.087C69.9246 286.048 70.368 285.931 70.5499 285.573C70.4561 285.762 70.1578 286 69.7017 286.042L69.7086 286.087Z"   fill="#727785" >
</path>
<path d="M60.1225 284.186C60.3523 284.407 60.449 284.708 60.4658 285.002C60.4832 285.306 60.6261 285.686 60.9557 285.826C61.2854 285.966 61.6543 285.3 61.1243 284.684C60.905 284.429 60.6986 284.253 60.1225 284.186Z"   fill="#E5E6ED" >
</path>
<path d="M61.264 285.914C61.2146 285.513 61.0477 284.69 60.4436 284.353C60.7627 284.527 61.1503 285.08 61.1854 285.927L61.264 285.914Z"   fill="#727785" >
</path>
<path d="M61.019 285.04C61.049 284.949 61.0967 284.756 61.0012 284.622C61.0521 284.692 61.0791 284.85 61.0008 285.035L61.019 285.04Z"   fill="#727785" >
</path>
<path d="M60.8947 284.821C60.8457 284.813 60.745 284.789 60.7028 284.709C60.7246 284.751 60.7928 284.803 60.8961 284.811L60.8947 284.821Z"   fill="#727785" >
</path>
<path d="M61.126 285.338C61.1785 285.258 61.2743 285.083 61.2165 284.929C61.2477 285.01 61.2331 285.169 61.1098 285.328L61.126 285.338Z"   fill="#727785" >
</path>
<path d="M61.0712 285.191C60.9765 285.176 60.7827 285.129 60.7077 284.983C60.7463 285.06 60.8743 285.157 61.0749 285.172L61.0712 285.191Z"   fill="#727785" >
</path>
<path d="M61.1677 285.592C61.0409 285.568 60.7809 285.496 60.6765 285.284C60.7303 285.396 60.904 285.538 61.1721 285.566L61.1677 285.592Z"   fill="#727785" >
</path>
<path d="M79.1027 287.654C78.8728 287.875 78.7762 288.177 78.7594 288.47C78.742 288.774 78.5991 289.154 78.2694 289.294C77.9398 289.434 77.5709 288.768 78.1009 288.152C78.3202 287.898 78.5266 287.722 79.1027 287.654Z"   fill="#E5E6ED" >
</path>
<path d="M77.9612 289.383C78.0106 288.982 78.1774 288.159 78.7816 287.821C78.4625 287.995 78.0749 288.549 78.0398 289.396L77.9612 289.383Z"   fill="#727785" >
</path>
<path d="M78.2062 288.509C78.1762 288.418 78.1286 288.224 78.224 288.091C78.1732 288.16 78.1461 288.318 78.2244 288.503L78.2062 288.509Z"   fill="#727785" >
</path>
<path d="M78.3305 288.29C78.3795 288.282 78.4802 288.257 78.5225 288.177C78.5006 288.219 78.4324 288.272 78.3291 288.279L78.3305 288.29Z"   fill="#727785" >
</path>
<path d="M78.0992 288.806C78.0468 288.726 77.9509 288.551 78.0087 288.398C77.9775 288.478 77.9921 288.638 78.1154 288.796L78.0992 288.806Z"   fill="#727785" >
</path>
<path d="M78.1541 288.659C78.2487 288.644 78.4425 288.597 78.5175 288.451C78.4789 288.529 78.3509 288.625 78.1504 288.64L78.1541 288.659Z"   fill="#727785" >
</path>
<path d="M78.0574 289.06C78.1842 289.036 78.4443 288.964 78.5486 288.752C78.4949 288.864 78.3211 289.006 78.053 289.034L78.0574 289.06Z"   fill="#727785" >
</path>
<path d="M105.976 300L116.59 300C118.931 300 121.493 299.555 118.016 297.689C120.943 297.689 123.909 296.099 118.603 295.25C120.799 293.893 120.799 289.483 115.492 291.688C118.603 286.6 113.479 284.225 110.551 288.974C109.087 284.394 101.584 282.698 103.78 290.84C100.265 288.974 95.141 293.448 102.095 295.823C98.984 296.501 93.6784 300 105.976 300Z"   fill="#EDEEF2" >
</path>
<path d="M117.057 299.505L122.476 299.505C123.672 299.505 124.98 299.267 123.204 298.272C124.7 298.272 126.214 297.424 123.504 296.971C124.626 296.248 124.626 293.896 121.916 295.072C123.504 292.358 120.888 291.091 119.393 293.624C118.645 291.181 114.814 290.277 115.935 294.619C114.14 293.624 111.524 296.01 115.075 297.277C113.486 297.639 110.777 299.505 117.057 299.505Z"   fill="#DFE0E5" >
</path>
<path d="M97.0183 286.58C97.5483 286.692 97.9587 287.04 98.2465 287.448C98.5447 287.871 99.0925 288.291 99.6938 288.197C100.295 288.102 100.229 286.811 98.9112 286.399C98.3659 286.228 97.9099 286.159 97.0183 286.58Z"   fill="#E5E6ED" >
</path>
<path d="M100.218 288.048C99.7865 287.514 98.8063 286.476 97.6318 286.532C98.2484 286.497 99.3047 286.947 100.116 288.137L100.218 288.048Z"   fill="#727785" >
</path>
<path d="M99.0794 287.007C99.0409 286.849 98.9357 286.527 98.678 286.42C98.8139 286.474 98.995 286.678 99.0485 287.016L99.0794 287.007Z"   fill="#727785" >
</path>
<path d="M98.7031 286.803C98.6254 286.835 98.458 286.89 98.3253 286.813C98.3946 286.854 98.5401 286.868 98.696 286.787L98.7031 286.803Z"   fill="#727785" >
</path>
<path d="M99.501 287.34C99.5046 287.177 99.4859 286.839 99.2645 286.669C99.3817 286.757 99.5042 287.001 99.4689 287.341L99.501 287.34Z"   fill="#727785" >
</path>
<path d="M99.2895 287.177C99.1394 287.24 98.8182 287.347 98.5788 287.204C98.7038 287.281 98.9752 287.305 99.2782 287.147L99.2895 287.177Z"   fill="#727785" >
</path>
<path d="M99.7897 287.669C99.5849 287.748 99.1449 287.877 98.804 287.666C98.982 287.779 99.3605 287.828 99.7723 287.627L99.7897 287.669Z"   fill="#727785" >
</path>
<path d="M124.207 290.048C123.677 290.16 123.267 290.508 122.979 290.916C122.681 291.339 122.133 291.759 121.531 291.665C120.93 291.571 120.996 290.279 122.314 289.867C122.859 289.696 123.315 289.627 124.207 290.048Z"   fill="#E5E6ED" >
</path>
<path d="M121.007 291.516C121.439 290.982 122.419 289.944 123.593 290.001C122.977 289.965 121.921 290.415 121.109 291.605L121.007 291.516Z"   fill="#727785" >
</path>
<path d="M122.146 290.475C122.184 290.317 122.289 289.995 122.547 289.888C122.411 289.943 122.23 290.146 122.177 290.484L122.146 290.475Z"   fill="#727785" >
</path>
<path d="M122.522 290.271C122.6 290.303 122.767 290.358 122.9 290.281C122.831 290.322 122.685 290.337 122.529 290.255L122.522 290.271Z"   fill="#727785" >
</path>
<path d="M121.724 290.808C121.721 290.645 121.739 290.307 121.961 290.138C121.843 290.226 121.721 290.469 121.756 290.809L121.724 290.808Z"   fill="#727785" >
</path>
<path d="M121.936 290.645C122.086 290.708 122.407 290.816 122.646 290.672C122.521 290.749 122.25 290.773 121.947 290.615L121.936 290.645Z"   fill="#727785" >
</path>
<path d="M121.435 291.138C121.64 291.216 122.08 291.346 122.421 291.134C122.243 291.247 121.865 291.296 121.453 291.095L121.435 291.138Z"   fill="#727785" >
</path>
<path d="M112.515 283.719C112.119 284.09 111.949 284.6 111.914 285.098C111.878 285.615 111.627 286.258 111.064 286.488C110.501 286.719 109.888 285.58 110.802 284.545C111.18 284.116 111.534 283.821 112.515 283.719Z"   fill="#E5E6ED" >
</path>
<path d="M110.538 286.632C110.631 285.952 110.932 284.557 111.965 283.997C111.419 284.285 110.749 285.218 110.672 286.656L110.538 286.632Z"   fill="#727785" >
</path>
<path d="M110.973 285.152C110.924 284.997 110.847 284.667 111.012 284.442C110.924 284.559 110.875 284.827 111.004 285.144L110.973 285.152Z"   fill="#727785" >
</path>
<path d="M111.189 284.783C111.272 284.77 111.444 284.73 111.517 284.596C111.479 284.667 111.362 284.754 111.187 284.765L111.189 284.783Z"   fill="#727785" >
</path>
<path d="M110.785 285.656C110.697 285.518 110.538 285.219 110.64 284.96C110.585 285.096 110.606 285.367 110.813 285.64L110.785 285.656Z"   fill="#727785" >
</path>
<path d="M110.881 285.407C111.042 285.383 111.373 285.308 111.503 285.062C111.436 285.192 111.216 285.353 110.875 285.375L110.881 285.407Z"   fill="#727785" >
</path>
<path d="M110.709 286.087C110.925 286.048 111.368 285.931 111.55 285.573C111.456 285.762 111.158 286 110.702 286.042L110.709 286.087Z"   fill="#727785" >
</path>
<path d="M101.122 284.186C101.352 284.407 101.449 284.708 101.466 285.002C101.483 285.306 101.626 285.686 101.956 285.826C102.285 285.966 102.654 285.3 102.124 284.684C101.905 284.429 101.699 284.253 101.122 284.186Z"   fill="#E5E6ED" >
</path>
<path d="M102.264 285.914C102.215 285.513 102.048 284.69 101.444 284.353C101.763 284.527 102.15 285.08 102.185 285.927L102.264 285.914Z"   fill="#727785" >
</path>
<path d="M102.019 285.04C102.049 284.949 102.097 284.756 102.001 284.622C102.052 284.692 102.079 284.85 102.001 285.035L102.019 285.04Z"   fill="#727785" >
</path>
<path d="M101.895 284.821C101.846 284.813 101.745 284.789 101.703 284.709C101.725 284.751 101.793 284.803 101.896 284.811L101.895 284.821Z"   fill="#727785" >
</path>
<path d="M102.126 285.338C102.178 285.258 102.274 285.083 102.216 284.929C102.248 285.01 102.233 285.169 102.11 285.328L102.126 285.338Z"   fill="#727785" >
</path>
<path d="M102.071 285.191C101.976 285.176 101.783 285.129 101.708 284.983C101.746 285.06 101.874 285.157 102.075 285.172L102.071 285.191Z"   fill="#727785" >
</path>
<path d="M102.168 285.592C102.041 285.568 101.781 285.496 101.677 285.284C101.73 285.396 101.904 285.538 102.172 285.566L102.168 285.592Z"   fill="#727785" >
</path>
<path d="M120.103 287.654C119.873 287.875 119.776 288.177 119.759 288.47C119.742 288.774 119.599 289.154 119.27 289.294C118.94 289.434 118.571 288.768 119.101 288.152C119.32 287.898 119.527 287.722 120.103 287.654Z"   fill="#E5E6ED" >
</path>
<path d="M118.961 289.383C119.011 288.982 119.177 288.159 119.782 287.821C119.462 287.995 119.075 288.549 119.04 289.396L118.961 289.383Z"   fill="#727785" >
</path>
<path d="M119.206 288.509C119.176 288.418 119.129 288.224 119.224 288.091C119.173 288.16 119.146 288.318 119.224 288.503L119.206 288.509Z"   fill="#727785" >
</path>
<path d="M119.33 288.29C119.379 288.282 119.48 288.257 119.522 288.177C119.501 288.219 119.432 288.272 119.329 288.279L119.33 288.29Z"   fill="#727785" >
</path>
<path d="M119.099 288.806C119.047 288.726 118.951 288.551 119.009 288.398C118.978 288.478 118.992 288.638 119.115 288.796L119.099 288.806Z"   fill="#727785" >
</path>
<path d="M119.154 288.659C119.249 288.644 119.443 288.597 119.518 288.451C119.479 288.529 119.351 288.625 119.15 288.64L119.154 288.659Z"   fill="#727785" >
</path>
<path d="M119.057 289.06C119.184 289.036 119.444 288.964 119.549 288.752C119.495 288.864 119.321 289.006 119.053 289.034L119.057 289.06Z"   fill="#727785" >
</path>
<rect x="197" y="169" width="8" height="130"   fill="#20242E" >
</rect>
<rect x="197" y="169" width="6" height="130"   fill="#334680" >
</rect>
<path     fill="#2F63FF"  d="M259.951 156.129L234.736 199.803C233.082 202.669 230.024 204.434 226.715 204.434L176.285 204.434C172.976 204.434 169.918 202.669 168.264 199.803L143.049 156.129C141.394 153.264 141.394 149.733 143.049 146.867L168.264 103.193C169.918 100.328 172.976 98.5625 176.285 98.5625L226.715 98.5625C230.024 98.5625 233.082 100.328 234.736 103.193L259.951 146.867C261.606 149.733 261.606 153.264 259.951 156.129Z">
</path>
<path d="M155.592 177.854C194.161 173.663 224.18 140.991 224.18 101.308C224.18 100.389 224.164 99.4736 224.132 98.5624L176.284 98.5618C172.976 98.5617 169.918 100.327 168.264 103.192L143.048 146.865C141.394 149.731 141.394 153.261 143.048 156.127L155.592 177.854Z" fill-rule="evenodd"  fill="#FFFFFF" fill-opacity="0.15">
</path>
<path fill-rule="evenodd"  fill="rgba(255, 255, 255, 1)"  d="M230.614 194.225L253.173 155.152C254.653 152.588 254.653 149.43 253.173 146.866L230.614 107.793C229.134 105.23 226.399 103.65 223.439 103.65L178.321 103.65C175.361 103.65 172.626 105.23 171.146 107.793L148.587 146.866C147.107 149.43 147.107 152.588 148.587 155.152L171.146 194.225C172.626 196.788 175.361 198.368 178.321 198.368L223.439 198.368C226.399 198.368 229.134 196.788 230.614 194.225ZM250.575 148.366Q252.101 151.009 250.575 153.652L228.016 192.725Q226.49 195.368 223.439 195.368L178.321 195.368Q175.27 195.368 173.744 192.725L151.185 153.652Q149.659 151.009 151.185 148.366L173.744 109.293Q175.27 106.65 178.321 106.65L223.439 106.65Q226.49 106.65 228.016 109.293L250.575 148.366Z">
</path>
<g >
<text transform="translate(166.6796875, 124.307861328125)">
<tspan x="0" y="40.671875" font-size="40" line-height="54"  fill="#FFFFFF"  font-family="Roboto-Regular" letter-spacing="0" >
404</tspan>
</text>
</g>
<path d="M145.357 223L155.232 223L177.674 293.02L122.914 293.02L145.357 223Z"   fill="#FFFFFF" >
</path>
<path d="M155.232 223L145.357 223L136.294 251.277L164.295 251.277L155.232 223ZM166.885 259.357L133.704 259.357L130.395 269.68L170.193 269.68L166.885 259.357ZM172.783 277.76L127.805 277.76L122.914 293.02L177.674 293.02L172.783 277.76Z" fill-rule="evenodd"  fill="#2F63FF" >
</path>
<rect x="109" y="293.0205078125" width="82.59" height="6.28"   fill="#2F63FF" >
</rect>
<path d="M175.516 286.288L125.072 286.288L122.915 293.018L177.673 293.018L175.516 286.288Z" fill-rule="evenodd"  fill="#000000" fill-opacity="0.2">
</path>
<g mask="url(#mask-Usoec2OOPWh6E7I5SCwOi)">
<circle cx="98.2278466796875" cy="205.944033203125" r="83.935"   fill="#FFFFFF" fill-opacity="0.2">
</circle>
</g>
<path    stroke="rgba(32, 36, 46, 1)" stroke-width="4" stroke-linejoin="round" stroke-linecap="round"  d="M2 300L402 300">
</path>
<defs>
<mask id="mask-Usoec2OOPWh6E7I5SCwOi" style="mask-type:alpha" maskUnits="userSpaceOnUse">
<path d="M155.232 223L145.357 223L136.294 251.277L164.295 251.277L155.232 223ZM166.885 259.357L133.704 259.357L130.395 269.68L170.193 269.68L166.885 259.357ZM172.783 277.76L127.805 277.76L122.914 293.02L177.674 293.02L172.783 277.76Z" fill-rule="evenodd"  fill="#2F63FF" >
</path>
<rect x="109" y="293.0205078125" width="82.59" height="6.28"   fill="#2F63FF" >
</rect>
<path d="M175.516 286.288L125.072 286.288L122.915 293.018L177.673 293.018L175.516 286.288Z" fill-rule="evenodd"  fill="#000000" fill-opacity="0.2">
</path>
</mask>
</defs>
</svg>
