<svg xmlns="http://www.w3.org/2000/svg" xmlns:xlink="http://www.w3.org/1999/xlink" width="404" height="302.000732421875" viewBox="0 0 404 302.000732421875" fill="none">
<path d="M316.902 300C338.807 273.926 352 240.29 352 203.571C352 120.729 284.843 53.5714 202 53.5714C119.157 53.5714 52 120.729 52 203.571C52 240.29 65.1931 273.926 87.0976 300L316.902 300Z" fill-rule="evenodd"  fill="#F0F3FD" >
</path>
<g opacity="0.7">
<path d="M160.993 115.138C160.995 115.069 160.996 115 160.996 114.93C160.996 110.55 157.445 107 153.066 107C148.686 107 145.136 110.55 145.136 114.93C145.136 115 145.137 115.069 145.138 115.138C145.069 115.136 145 115.136 144.93 115.136C140.55 115.136 137 118.686 137 123.066C137 127.445 140.55 130.996 144.93 130.996C144.999 130.996 145.067 130.995 145.136 130.993L145.136 131L160.996 131L160.996 130.993C165.282 130.886 168.724 127.378 168.724 123.066C168.724 118.752 165.281 115.243 160.993 115.138Z" fill-rule="evenodd"  fill="#FFFFFF" >
</path>
</g>
<g opacity="0.15">
<path d="M111.488 154.639L109.579 156.909C109.415 157.104 109.309 157.34 109.272 157.592L104.451 190.407C104.36 191.022 104.695 191.62 105.266 191.865L109.579 193.713C109.758 193.79 109.941 193.825 110.119 193.825L110.119 204.295C110.119 204.673 110.425 204.98 110.804 204.98C111.182 204.98 111.489 204.673 111.489 204.295L111.489 185.115C111.489 185.108 111.489 185.102 111.488 185.095L111.488 154.639Z" fill-rule="evenodd"  fill="#A4A4A4" >
</path>
<path d="M111.488 153.954L109.579 156.224C109.415 156.419 109.309 156.655 109.272 156.907L104.451 189.722C104.36 190.337 104.695 190.935 105.266 191.18L109.579 193.028C109.758 193.105 109.941 193.141 110.119 193.141L110.119 203.61C110.119 203.988 110.425 204.295 110.804 204.295C111.182 204.295 111.489 203.988 111.489 203.61L111.489 184.43C111.489 184.423 111.489 184.417 111.488 184.41L111.488 153.954Z" fill-rule="evenodd"  fill="#C4C4C4" >
</path>
<path d="M67.8262 228.089L70.7474 228.608C70.9977 228.652 71.2555 228.626 71.4919 228.532L102.321 216.3C102.899 216.071 103.25 215.482 103.176 214.865L102.621 210.206C102.597 210.013 102.537 209.837 102.448 209.682L111.515 204.448C111.842 204.258 111.955 203.839 111.765 203.512C111.576 203.184 111.157 203.072 110.83 203.261L94.2193 212.851C94.2136 212.854 94.2078 212.858 94.2022 212.861L67.8262 228.089Z" fill-rule="evenodd"  fill="#A4A4A4" >
</path>
<path d="M67.4838 227.747L70.4049 228.265C70.6553 228.31 70.9131 228.284 71.1495 228.19L101.979 215.958C102.556 215.729 102.907 215.139 102.834 214.522L102.278 209.863C102.255 209.67 102.194 209.494 102.105 209.34L111.172 204.105C111.5 203.916 111.612 203.497 111.423 203.169C111.234 202.842 110.815 202.729 110.487 202.919L93.8769 212.509C93.8711 212.512 93.8654 212.515 93.8597 212.519L67.4838 227.747Z" fill-rule="evenodd"  fill="#C4C4C4" >
</path>
<path d="M153.712 229.745L152.7 226.956C152.613 226.717 152.462 226.507 152.263 226.349L126.254 205.766C125.767 205.381 125.081 205.372 124.584 205.744L120.827 208.555C120.671 208.671 120.549 208.812 120.46 208.966L111.393 203.731C111.065 203.542 110.646 203.654 110.457 203.982C110.268 204.31 110.38 204.728 110.708 204.918L127.318 214.508C127.324 214.511 127.33 214.514 127.336 214.517L153.712 229.745Z" fill-rule="evenodd"  fill="#A4A4A4" >
</path>
<path d="M153.712 229.061L152.7 226.272C152.614 226.033 152.462 225.822 152.263 225.665L126.255 205.082C125.767 204.696 125.082 204.687 124.584 205.059L120.827 207.87C120.671 207.986 120.549 208.127 120.46 208.281L111.393 203.046C111.066 202.857 110.647 202.969 110.457 203.297C110.268 203.625 110.381 204.044 110.708 204.233L127.319 213.823C127.324 213.826 127.33 213.829 127.336 213.833L153.712 229.061Z" fill-rule="evenodd"  fill="#C4C4C4" >
</path>
<path d="M112.564 206.381C113.543 205.963 114.229 204.992 114.229 203.86C114.229 202.347 113.002 201.12 111.489 201.12C109.976 201.12 108.749 202.347 108.749 203.86C108.749 204.991 109.434 205.962 110.413 206.381L104.982 297L117.995 297L112.564 206.381Z" fill-rule="evenodd"  fill="#A4A4A4" >
</path>
<path d="M111.879 206.381C112.858 205.963 113.544 204.992 113.544 203.86C113.544 202.347 112.317 201.12 110.804 201.12C109.291 201.12 108.064 202.347 108.064 203.86C108.064 204.991 108.75 205.962 109.728 206.381L104.297 297L117.31 297L111.879 206.381Z" fill-rule="evenodd"  fill="#C4C4C4" >
</path>
</g>
<g opacity="0.6">
<rect  x="326" y="176" width="26.71" height="63" rx="13.355"    fill="#E9EBF2" >
</rect>
<rect  x="338.7588634490967" y="201.51767539978027" width="1.59" height="98.48" rx="0.795"    fill="#E1E2E5" >
</rect>
<rect  x="345.33844566345215" y="205.01945877075195" width="1.59" height="13.44" transform="rotate(30.000000445292045 345.33844566345215 205.01945877075195)" rx="0.795"    fill="#E1E2E5" >
</rect>
<rect  transform="matrix(0.8660253882408142, -0.5, -0.5, -0.8660253882408142, 339.20086669921875, 226.49032592773438)" x="0" y="0" width="1.59" height="18.91" rx="0.795"    fill="#E1E2E5" >
</rect>
</g>
<rect  x="298" y="124" width="38.2" height="90.08" rx="19.1"    fill="#E9EBF2" >
</rect>
<rect  x="316.24452781677246" y="160.48888778686523" width="2.28" height="140.82" rx="1.14"    fill="#E1E2E5" >
</rect>
<rect  x="325.6529426574707" y="165.49627304077148" width="2.28" height="19.22" transform="rotate(30.000000445292045 325.6529426574707 165.49627304077148)" rx="1.14"    fill="#E1E2E5" >
</rect>
<rect  transform="matrix(0.8660253882408142, -0.5, -0.5, -0.8660253882408142, 316.87653732299805, 196.19847869873047)" x="0" y="0" width="2.28" height="27.04" rx="1.14"    fill="#E1E2E5" >
</rect>
<path d="M74.3846 78.1396L71.3818 81.71C71.1244 82.016 70.9573 82.3876 70.8992 82.7832L63.3178 134.384C63.1758 135.351 63.7023 136.292 64.6003 136.677L71.3823 139.584C71.6633 139.704 71.9506 139.76 72.2307 139.76L72.2307 156.221C72.2307 156.815 72.712 157.296 73.3057 157.296C73.8994 157.296 74.3807 156.815 74.3807 156.221L74.3807 137.737C74.3833 137.693 74.3846 137.649 74.3846 137.604L74.3846 78.1396Z" fill-rule="evenodd"  fill="#DCDFE5" >
</path>
<path d="M74.3846 77.0627L71.3818 80.6331C71.1244 80.9391 70.9573 81.3107 70.8992 81.7063L63.3178 133.307C63.1758 134.274 63.7023 135.215 64.6003 135.6L71.3823 138.507C71.6633 138.627 71.9506 138.683 72.2307 138.683L72.2307 155.144C72.2307 155.738 72.712 156.219 73.3057 156.219C73.8994 156.219 74.3807 155.738 74.3807 155.144L74.3807 136.66C74.3833 136.616 74.3846 136.572 74.3846 136.527L74.3846 77.0627Z" fill-rule="evenodd"  fill="#E9EBF2" >
</path>
<path d="M5.72677 193.64L10.3202 194.455C10.7139 194.525 11.1193 194.484 11.4909 194.336L59.9695 175.101C60.8777 174.741 61.4296 173.815 61.3139 172.844L60.44 165.518C60.4038 165.214 60.3085 164.937 60.1686 164.695L74.424 156.464C74.9381 156.168 75.1143 155.51 74.8175 154.996C74.5206 154.482 73.8631 154.306 73.349 154.602L57.3399 163.845C57.3011 163.865 57.2626 163.885 57.2244 163.908L5.72677 193.64Z" fill-rule="evenodd"  fill="#DCDFE5" >
</path>
<path d="M5.18835 193.101L9.78176 193.916C10.1755 193.986 10.5808 193.945 10.9525 193.798L59.4311 174.563C60.3393 174.202 60.8912 173.276 60.7754 172.306L59.9016 164.979C59.8654 164.676 59.7701 164.399 59.6302 164.156L73.8855 155.926C74.3997 155.629 74.5758 154.972 74.279 154.457C73.9821 153.943 73.3247 153.767 72.8105 154.064L56.803 163.306C56.7637 163.326 56.7247 163.347 56.686 163.369L5.18835 193.101Z" fill-rule="evenodd"  fill="#E9EBF2" >
</path>
<path d="M140.78 196.244L139.189 191.858C139.053 191.482 138.815 191.152 138.501 190.904L97.604 158.537C96.8378 157.931 95.7595 157.916 94.9771 158.502L89.069 162.922C88.8242 163.105 88.6322 163.326 88.492 163.568L74.2367 155.338C73.7226 155.041 73.0651 155.217 72.7682 155.731C72.4714 156.246 72.6476 156.903 73.1617 157.2L89.1692 166.442C89.2059 166.466 89.2436 166.489 89.2823 166.512L140.78 196.244Z" fill-rule="evenodd"  fill="#DCDFE5" >
</path>
<path d="M140.78 195.167L139.189 190.781C139.053 190.405 138.815 190.075 138.501 189.827L97.604 157.46C96.8378 156.854 95.7595 156.839 94.9771 157.425L89.069 161.845C88.8242 162.028 88.6322 162.249 88.492 162.491L74.2366 154.261C73.7225 153.964 73.065 154.14 72.7682 154.654C72.4713 155.169 72.6475 155.826 73.1616 156.123L89.1692 165.365C89.2059 165.389 89.2436 165.412 89.2823 165.435L140.78 195.167Z" fill-rule="evenodd"  fill="#E9EBF2" >
</path>
<path d="M76.0765 159.507C77.6171 158.85 78.6969 157.321 78.6969 155.541C78.6969 153.16 76.7673 151.231 74.3869 151.231C72.0066 151.231 70.077 153.16 70.077 155.541C70.077 157.32 71.1547 158.847 72.6929 159.505L64.1538 302L84.6154 302L76.0765 159.507Z" fill-rule="evenodd"  fill="#DCDFE5" >
</path>
<path d="M74.9996 159.507C76.5402 158.85 77.62 157.321 77.62 155.541C77.62 153.16 75.6904 151.231 73.31 151.231C70.9297 151.231 69 153.16 69 155.541C69 157.32 70.0778 158.847 71.6159 159.505L63.0769 302L83.5385 302L74.9996 159.507Z" fill-rule="evenodd"  fill="#E9EBF2" >
</path>
<g opacity="0.6">
<path d="M259.101 143.104C259.102 143.069 259.103 143.035 259.103 143C259.103 140.791 257.312 139 255.103 139C252.893 139 251.103 140.791 251.103 143C251.103 143.035 251.103 143.069 251.104 143.104C251.069 143.103 251.035 143.102 251 143.102C248.791 143.102 247 144.893 247 147.102C247 149.312 248.791 151.102 251 151.102C251.057 151.102 251.114 151.101 251.171 151.099L258.829 151.099C258.885 151.101 258.943 151.102 259 151.102C261.209 151.102 263 149.312 263 147.102C263 144.927 261.264 143.158 259.101 143.104Z" fill-rule="evenodd"  fill="#FFFFFF" >
</path>
</g>
<g opacity="0.5">
<path d="M281.002 185.374C281.003 185.354 281.003 185.335 281.003 185.315C281.003 184.036 279.967 183 278.688 183C277.409 183 276.373 184.036 276.373 185.315C276.373 185.335 276.373 185.354 276.374 185.374C276.354 185.373 276.335 185.373 276.315 185.373C275.036 185.373 274 186.409 274 187.688C274 188.966 275.036 190.003 276.315 190.003C276.366 190.003 276.417 190.001 276.467 189.998L280.79 189.998C280.84 190.001 280.891 190.003 280.942 190.003C282.221 190.003 283.257 188.966 283.257 187.688C283.257 186.43 282.253 185.406 281.002 185.374Z" fill-rule="evenodd"  fill="#FFFFFF" >
</path>
</g>
<path d="M241.788 88.6871C239.805 84.1616 235.287 81 230.03 81C222.944 81 217.2 86.7442 217.2 93.83C217.2 93.93 217.201 94.0298 217.203 94.1293C214.235 94.7303 212 97.3541 212 100.5C212 104.09 214.91 107 218.5 107L256.98 107C260.57 107 263.48 104.09 263.48 100.5C263.48 96.9101 260.57 94 256.98 94L254.042 94C253.517 90.1911 250.249 87.2576 246.296 87.2576C244.617 87.2576 243.062 87.7866 241.788 88.6871Z" fill-rule="evenodd"  fill="#FFFFFF" >
</path>
<g opacity="0.6">
<path d="M102.153 140.135C101.344 138.289 99.5004 137 97.3562 137C94.465 137 92.1212 139.344 92.1212 142.235C92.1212 142.275 92.1217 142.315 92.1226 142.355C90.9117 142.6 90 143.67 90 144.953C90 146.417 91.1864 147.603 92.65 147.603L108.35 147.603C109.814 147.603 111 146.417 111 144.953C111 143.489 109.814 142.303 108.35 142.303L107.15 142.303C106.936 140.749 105.603 139.553 103.99 139.553C103.306 139.553 102.672 139.768 102.153 140.135Z" fill-rule="evenodd"  fill="#FFFFFF" >
</path>
</g>
<path d="M104.976 300L115.59 300C117.931 300 120.492 299.555 117.016 297.689C119.943 297.689 122.909 296.099 117.603 295.25C119.798 293.893 119.798 289.483 114.492 291.688C117.603 286.599 112.479 284.225 109.551 288.974C108.087 284.394 100.584 282.698 102.78 290.84C99.2649 288.974 94.141 293.448 101.095 295.823C97.9839 296.501 92.6784 300 104.976 300Z"   fill="#EDEEF2" >
</path>
<path d="M116.057 299.505L121.476 299.505C122.672 299.505 123.98 299.267 122.204 298.272C123.7 298.272 125.214 297.424 122.504 296.971C123.626 296.248 123.626 293.896 120.916 295.072C122.504 292.358 119.888 291.091 118.393 293.624C117.645 291.181 113.814 290.277 114.935 294.619C113.14 293.624 110.524 296.01 114.075 297.277C112.486 297.639 109.777 299.505 116.057 299.505Z"   fill="#DFE0E5" >
</path>
<path d="M96.0183 286.58C96.5483 286.692 96.9587 287.04 97.2465 287.448C97.5447 287.871 98.0925 288.291 98.6938 288.197C99.295 288.102 99.2291 286.811 97.9112 286.398C97.3659 286.228 96.9099 286.159 96.0183 286.58Z"   fill="#E5E6ED" >
</path>
<path d="M99.2181 288.048C98.7865 287.514 97.8063 286.476 96.6318 286.532C97.2483 286.497 98.3047 286.947 99.1162 288.137L99.2181 288.048Z"   fill="#727785" >
</path>
<path d="M98.0793 287.007C98.0409 286.849 97.9357 286.527 97.678 286.42C97.8139 286.475 97.995 286.678 98.0484 287.016L98.0793 287.007Z"   fill="#727785" >
</path>
<path d="M97.7031 286.802C97.6254 286.835 97.458 286.89 97.3253 286.813C97.3946 286.854 97.5401 286.868 97.696 286.786L97.7031 286.802Z"   fill="#727785" >
</path>
<path d="M98.501 287.34C98.5046 287.177 98.4859 286.839 98.2645 286.669C98.3817 286.757 98.5042 287.001 98.4689 287.341L98.501 287.34Z"   fill="#727785" >
</path>
<path d="M98.2895 287.177C98.1394 287.24 97.8182 287.347 97.5788 287.204C97.7038 287.281 97.9752 287.305 98.2782 287.147L98.2895 287.177Z"   fill="#727785" >
</path>
<path d="M98.7897 287.669C98.5849 287.748 98.1449 287.878 97.804 287.666C97.9821 287.779 98.3605 287.828 98.7723 287.627L98.7897 287.669Z"   fill="#727785" >
</path>
<path d="M123.207 290.048C122.677 290.16 122.266 290.508 121.979 290.916C121.68 291.339 121.133 291.759 120.531 291.665C119.93 291.571 119.996 290.279 121.314 289.867C121.859 289.696 122.315 289.627 123.207 290.048Z"   fill="#E5E6ED" >
</path>
<path d="M120.007 291.516C120.439 290.982 121.419 289.944 122.593 290.001C121.977 289.965 120.92 290.415 120.109 291.605L120.007 291.516Z"   fill="#727785" >
</path>
<path d="M121.146 290.475C121.184 290.317 121.289 289.995 121.547 289.888C121.411 289.943 121.23 290.146 121.177 290.484L121.146 290.475Z"   fill="#727785" >
</path>
<path d="M121.522 290.271C121.6 290.303 121.767 290.358 121.9 290.281C121.831 290.322 121.685 290.337 121.529 290.255L121.522 290.271Z"   fill="#727785" >
</path>
<path d="M120.724 290.808C120.721 290.645 120.739 290.307 120.961 290.138C120.843 290.226 120.721 290.469 120.756 290.809L120.724 290.808Z"   fill="#727785" >
</path>
<path d="M120.936 290.645C121.086 290.708 121.407 290.816 121.646 290.672C121.521 290.749 121.25 290.773 120.947 290.615L120.936 290.645Z"   fill="#727785" >
</path>
<path d="M120.435 291.138C120.64 291.216 121.08 291.346 121.421 291.134C121.243 291.247 120.865 291.296 120.453 291.095L120.435 291.138Z"   fill="#727785" >
</path>
<path d="M111.515 283.719C111.119 284.09 110.949 284.6 110.914 285.098C110.878 285.615 110.627 286.258 110.064 286.488C109.501 286.719 108.888 285.58 109.802 284.545C110.18 284.116 110.534 283.821 111.515 283.719Z"   fill="#E5E6ED" >
</path>
<path d="M109.538 286.632C109.631 285.952 109.932 284.557 110.965 283.997C110.419 284.285 109.749 285.218 109.672 286.656L109.538 286.632Z"   fill="#727785" >
</path>
<path d="M109.973 285.152C109.924 284.997 109.847 284.667 110.012 284.442C109.924 284.559 109.875 284.827 110.004 285.144L109.973 285.152Z"   fill="#727785" >
</path>
<path d="M110.189 284.783C110.272 284.77 110.444 284.73 110.517 284.596C110.479 284.667 110.362 284.754 110.187 284.765L110.189 284.783Z"   fill="#727785" >
</path>
<path d="M109.785 285.656C109.697 285.518 109.538 285.219 109.64 284.96C109.585 285.096 109.606 285.367 109.813 285.64L109.785 285.656Z"   fill="#727785" >
</path>
<path d="M109.881 285.406C110.042 285.383 110.373 285.308 110.503 285.062C110.436 285.192 110.216 285.353 109.875 285.375L109.881 285.406Z"   fill="#727785" >
</path>
<path d="M109.709 286.087C109.925 286.048 110.368 285.931 110.55 285.573C110.456 285.762 110.158 286 109.702 286.042L109.709 286.087Z"   fill="#727785" >
</path>
<path d="M100.122 284.186C100.352 284.407 100.449 284.708 100.466 285.002C100.483 285.306 100.626 285.686 100.956 285.826C101.285 285.966 101.654 285.3 101.124 284.684C100.905 284.429 100.699 284.253 100.122 284.186Z"   fill="#E5E6ED" >
</path>
<path d="M101.264 285.914C101.215 285.513 101.048 284.69 100.444 284.353C100.763 284.527 101.15 285.08 101.185 285.927L101.264 285.914Z"   fill="#727785" >
</path>
<path d="M101.019 285.04C101.049 284.949 101.097 284.756 101.001 284.622C101.052 284.692 101.079 284.85 101.001 285.035L101.019 285.04Z"   fill="#727785" >
</path>
<path d="M100.895 284.821C100.846 284.813 100.745 284.789 100.703 284.709C100.725 284.751 100.793 284.803 100.896 284.811L100.895 284.821Z"   fill="#727785" >
</path>
<path d="M101.126 285.338C101.178 285.258 101.274 285.083 101.216 284.929C101.248 285.01 101.233 285.169 101.11 285.328L101.126 285.338Z"   fill="#727785" >
</path>
<path d="M101.071 285.191C100.976 285.176 100.783 285.129 100.708 284.983C100.746 285.06 100.874 285.157 101.075 285.172L101.071 285.191Z"   fill="#727785" >
</path>
<path d="M101.168 285.592C101.041 285.568 100.781 285.496 100.677 285.284C100.73 285.396 100.904 285.538 101.172 285.566L101.168 285.592Z"   fill="#727785" >
</path>
<path d="M119.103 287.654C118.873 287.875 118.776 288.177 118.759 288.47C118.742 288.774 118.599 289.154 118.269 289.294C117.94 289.434 117.571 288.768 118.101 288.152C118.32 287.898 118.527 287.721 119.103 287.654Z"   fill="#E5E6ED" >
</path>
<path d="M117.961 289.383C118.011 288.982 118.177 288.159 118.782 287.821C118.463 287.995 118.075 288.549 118.04 289.395L117.961 289.383Z"   fill="#727785" >
</path>
<path d="M118.206 288.509C118.176 288.418 118.129 288.224 118.224 288.091C118.173 288.16 118.146 288.318 118.224 288.503L118.206 288.509Z"   fill="#727785" >
</path>
<path d="M118.33 288.289C118.379 288.282 118.48 288.257 118.522 288.177C118.501 288.219 118.432 288.272 118.329 288.279L118.33 288.289Z"   fill="#727785" >
</path>
<path d="M118.099 288.806C118.047 288.726 117.951 288.551 118.009 288.398C117.978 288.478 117.992 288.638 118.115 288.796L118.099 288.806Z"   fill="#727785" >
</path>
<path d="M118.154 288.659C118.249 288.644 118.443 288.597 118.518 288.451C118.479 288.528 118.351 288.625 118.15 288.64L118.154 288.659Z"   fill="#727785" >
</path>
<path d="M118.057 289.06C118.184 289.036 118.444 288.964 118.549 288.752C118.495 288.864 118.321 289.006 118.053 289.034L118.057 289.06Z"   fill="#727785" >
</path>
<path d="M333.976 300L344.59 300C346.931 300 349.492 299.555 346.016 297.689C348.943 297.689 351.909 296.099 346.603 295.25C348.798 293.893 348.798 289.483 343.492 291.688C346.603 286.599 341.479 284.225 338.551 288.974C337.087 284.394 329.584 282.698 331.78 290.84C328.265 288.974 323.141 293.448 330.095 295.823C326.984 296.501 321.678 300 333.976 300Z"   fill="#EDEEF2" >
</path>
<path d="M345.056 299.505L350.476 299.505C351.672 299.505 352.98 299.267 351.204 298.272C352.7 298.272 354.214 297.424 351.504 296.971C352.626 296.248 352.626 293.896 349.916 295.072C351.504 292.358 348.888 291.091 347.393 293.624C346.645 291.181 342.814 290.277 343.935 294.619C342.14 293.624 339.524 296.01 343.075 297.277C341.486 297.639 338.777 299.505 345.056 299.505Z"   fill="#DFE0E5" >
</path>
<path d="M325.018 286.58C325.548 286.692 325.959 287.04 326.247 287.448C326.545 287.871 327.093 288.291 327.694 288.197C328.295 288.102 328.229 286.811 326.911 286.398C326.366 286.228 325.91 286.159 325.018 286.58Z"   fill="#E5E6ED" >
</path>
<path d="M328.218 288.048C327.786 287.514 326.806 286.476 325.632 286.532C326.248 286.497 327.305 286.947 328.116 288.137L328.218 288.048Z"   fill="#727785" >
</path>
<path d="M327.079 287.007C327.041 286.849 326.936 286.527 326.678 286.42C326.814 286.475 326.995 286.678 327.048 287.016L327.079 287.007Z"   fill="#727785" >
</path>
<path d="M326.703 286.802C326.625 286.835 326.458 286.89 326.325 286.813C326.395 286.854 326.54 286.868 326.696 286.786L326.703 286.802Z"   fill="#727785" >
</path>
<path d="M327.501 287.34C327.505 287.177 327.486 286.839 327.264 286.669C327.382 286.757 327.504 287.001 327.469 287.341L327.501 287.34Z"   fill="#727785" >
</path>
<path d="M327.29 287.177C327.139 287.24 326.818 287.347 326.579 287.204C326.704 287.281 326.975 287.305 327.278 287.147L327.29 287.177Z"   fill="#727785" >
</path>
<path d="M327.79 287.669C327.585 287.748 327.145 287.878 326.804 287.666C326.982 287.779 327.36 287.828 327.772 287.627L327.79 287.669Z"   fill="#727785" >
</path>
<path d="M352.207 290.048C351.677 290.16 351.266 290.508 350.979 290.916C350.68 291.339 350.133 291.759 349.531 291.665C348.93 291.571 348.996 290.279 350.314 289.867C350.859 289.696 351.315 289.627 352.207 290.048Z"   fill="#E5E6ED" >
</path>
<path d="M349.007 291.516C349.439 290.982 350.419 289.944 351.593 290.001C350.977 289.965 349.92 290.415 349.109 291.605L349.007 291.516Z"   fill="#727785" >
</path>
<path d="M350.146 290.475C350.184 290.317 350.289 289.995 350.547 289.888C350.411 289.943 350.23 290.146 350.177 290.484L350.146 290.475Z"   fill="#727785" >
</path>
<path d="M350.522 290.271C350.6 290.303 350.767 290.358 350.9 290.281C350.831 290.322 350.685 290.337 350.529 290.255L350.522 290.271Z"   fill="#727785" >
</path>
<path d="M349.724 290.808C349.721 290.645 349.739 290.307 349.961 290.138C349.843 290.226 349.721 290.469 349.756 290.809L349.724 290.808Z"   fill="#727785" >
</path>
<path d="M349.936 290.645C350.086 290.708 350.407 290.816 350.646 290.672C350.521 290.749 350.25 290.773 349.947 290.615L349.936 290.645Z"   fill="#727785" >
</path>
<path d="M349.435 291.138C349.64 291.216 350.08 291.346 350.421 291.134C350.243 291.247 349.865 291.296 349.453 291.095L349.435 291.138Z"   fill="#727785" >
</path>
<path d="M340.515 283.719C340.119 284.09 339.949 284.6 339.914 285.098C339.878 285.615 339.627 286.258 339.064 286.488C338.501 286.719 337.888 285.58 338.802 284.545C339.18 284.116 339.534 283.821 340.515 283.719Z"   fill="#E5E6ED" >
</path>
<path d="M338.538 286.632C338.631 285.952 338.932 284.557 339.965 283.997C339.419 284.285 338.749 285.218 338.672 286.656L338.538 286.632Z"   fill="#727785" >
</path>
<path d="M338.973 285.152C338.924 284.997 338.847 284.667 339.012 284.442C338.924 284.559 338.875 284.827 339.004 285.144L338.973 285.152Z"   fill="#727785" >
</path>
<path d="M339.189 284.783C339.272 284.77 339.444 284.73 339.517 284.596C339.479 284.667 339.362 284.754 339.187 284.765L339.189 284.783Z"   fill="#727785" >
</path>
<path d="M338.785 285.656C338.697 285.518 338.538 285.219 338.64 284.96C338.585 285.096 338.606 285.367 338.813 285.64L338.785 285.656Z"   fill="#727785" >
</path>
<path d="M338.881 285.406C339.042 285.383 339.373 285.308 339.503 285.062C339.436 285.192 339.216 285.353 338.875 285.375L338.881 285.406Z"   fill="#727785" >
</path>
<path d="M338.709 286.087C338.925 286.048 339.368 285.931 339.55 285.573C339.456 285.762 339.158 286 338.702 286.042L338.709 286.087Z"   fill="#727785" >
</path>
<path d="M329.122 284.186C329.352 284.407 329.449 284.708 329.466 285.002C329.483 285.306 329.626 285.686 329.956 285.826C330.285 285.966 330.654 285.3 330.124 284.684C329.905 284.429 329.699 284.253 329.122 284.186Z"   fill="#E5E6ED" >
</path>
<path d="M330.264 285.914C330.215 285.513 330.048 284.69 329.444 284.353C329.763 284.527 330.15 285.08 330.185 285.927L330.264 285.914Z"   fill="#727785" >
</path>
<path d="M330.019 285.04C330.049 284.949 330.097 284.756 330.001 284.622C330.052 284.692 330.079 284.85 330.001 285.035L330.019 285.04Z"   fill="#727785" >
</path>
<path d="M329.895 284.821C329.846 284.813 329.745 284.789 329.703 284.709C329.725 284.751 329.793 284.803 329.896 284.811L329.895 284.821Z"   fill="#727785" >
</path>
<path d="M330.126 285.338C330.178 285.258 330.274 285.083 330.216 284.929C330.248 285.01 330.233 285.169 330.11 285.328L330.126 285.338Z"   fill="#727785" >
</path>
<path d="M330.071 285.191C329.977 285.176 329.783 285.129 329.708 284.983C329.746 285.06 329.874 285.157 330.075 285.172L330.071 285.191Z"   fill="#727785" >
</path>
<path d="M330.168 285.592C330.041 285.568 329.781 285.496 329.677 285.284C329.73 285.396 329.904 285.538 330.172 285.566L330.168 285.592Z"   fill="#727785" >
</path>
<path d="M348.103 287.654C347.873 287.875 347.776 288.177 347.759 288.47C347.742 288.774 347.599 289.154 347.269 289.294C346.94 289.434 346.571 288.768 347.101 288.152C347.32 287.898 347.527 287.721 348.103 287.654Z"   fill="#E5E6ED" >
</path>
<path d="M346.961 289.383C347.011 288.982 347.177 288.159 347.782 287.821C347.463 287.995 347.075 288.549 347.04 289.395L346.961 289.383Z"   fill="#727785" >
</path>
<path d="M347.206 288.509C347.176 288.418 347.129 288.224 347.224 288.091C347.173 288.16 347.146 288.318 347.224 288.503L347.206 288.509Z"   fill="#727785" >
</path>
<path d="M347.331 288.289C347.379 288.282 347.48 288.257 347.522 288.177C347.501 288.219 347.432 288.272 347.329 288.279L347.331 288.289Z"   fill="#727785" >
</path>
<path d="M347.099 288.806C347.047 288.726 346.951 288.551 347.009 288.398C346.978 288.478 346.992 288.638 347.115 288.796L347.099 288.806Z"   fill="#727785" >
</path>
<path d="M347.154 288.659C347.249 288.644 347.443 288.597 347.518 288.451C347.479 288.528 347.351 288.625 347.15 288.64L347.154 288.659Z"   fill="#727785" >
</path>
<path d="M347.057 289.06C347.184 289.036 347.444 288.964 347.549 288.752C347.495 288.864 347.321 289.006 347.053 289.034L347.057 289.06Z"   fill="#727785" >
</path>
<path    stroke="rgba(32, 36, 46, 1)" stroke-width="4" stroke-linejoin="round" stroke-linecap="round"  d="M2 300L402 300">
</path>
<rect x="137" y="189" width="79" height="109"   fill="#334680" >
</rect>
<rect  x="125" y="161" width="103.13" height="28.4" rx="1.9927798509597778"    fill="#2F63FF" >
</rect>
<path     fill="#FFFFFF"  d="M143.433 184.415L180.798 184.415C181.898 184.415 182.79 185.307 182.79 186.408L182.79 189.395L141.44 189.395L141.44 186.408C141.44 185.307 142.333 184.415 143.433 184.415Z">
</path>
<rect  x="190.76173400878906" y="171.4620943069458" width="19.43" height="2.99" rx="0.49819496273994446"    fill="#FFFFFF" >
</rect>
<circle cx="130.48055946350098" cy="166.48055946350098" r="1.495"   fill="#FF4343" >
</circle>
<circle cx="140.4444218826294" cy="166.48058436231906" r="1.495"   fill="#28C760" >
</circle>
<circle cx="135.46247255325318" cy="166.48058436231906" r="1.495"   fill="#FFA113" >
</circle>
<circle cx="216.16911254882814" cy="172.95611892700197" r="3.985"   fill="#FFFFFF" >
</circle>
<rect  x="125" y="195.3826904296875" width="103.13" height="28.4" rx="1.9927798509597778"    fill="#2F63FF" >
</rect>
<path     fill="#FFFFFF"  d="M143.433 218.798L180.798 218.798C181.898 218.798 182.79 219.69 182.79 220.791L182.79 223.778L141.44 223.778L141.44 220.791C141.44 219.69 142.333 218.798 143.433 218.798Z">
</path>
<rect  x="190.76173400878906" y="205.84476566314697" width="19.43" height="2.99" rx="0.49819496273994446"    fill="#FFFFFF" >
</rect>
<circle cx="130.48055946350098" cy="200.86323105812073" r="1.495"   fill="#FF4343" >
</circle>
<circle cx="140.4444218826294" cy="200.8632370073957" r="1.495"   fill="#28C760" >
</circle>
<circle cx="135.46247255325318" cy="200.8632370073957" r="1.495"   fill="#FFA113" >
</circle>
<circle cx="216.16911254882814" cy="207.3387907600403" r="3.985"   fill="#FFFFFF" >
</circle>
<rect  x="125" y="229.76531982421875" width="103.13" height="28.4" rx="1.9927798509597778"    fill="#2F63FF" >
</rect>
<path     fill="#FFFFFF"  d="M143.433 253.181L180.798 253.181C181.898 253.181 182.79 254.073 182.79 255.173L182.79 258.161L141.44 258.161L141.44 255.173C141.44 254.073 142.333 253.181 143.433 253.181Z">
</path>
<rect  x="190.76173400878906" y="240.22743701934814" width="19.43" height="2.99" rx="0.49819496273994446"    fill="#FFFFFF" >
</rect>
<circle cx="130.48055946350098" cy="235.2459024143219" r="1.495"   fill="#FF4343" >
</circle>
<circle cx="140.4444218826294" cy="235.24588941405375" r="1.495"   fill="#28C760" >
</circle>
<circle cx="135.46247255325318" cy="235.24588941405375" r="1.495"   fill="#FFA113" >
</circle>
<circle cx="216.16911254882814" cy="241.72146211624147" r="3.985"   fill="#FFFFFF" >
</circle>
<rect  x="125" y="264.14801025390625" width="103.13" height="28.4" rx="1.9927798509597778"    fill="#2F63FF" >
</rect>
<path     fill="#FFFFFF"  d="M143.433 287.563L180.798 287.563C181.898 287.563 182.79 288.455 182.79 289.556L182.79 292.543L141.44 292.543L141.44 289.556C141.44 288.455 142.333 287.563 143.433 287.563Z">
</path>
<rect  x="190.76173400878906" y="274.6101083755493" width="19.43" height="2.99" rx="0.49819496273994446"    fill="#FFFFFF" >
</rect>
<circle cx="130.48055946350098" cy="269.62857400894165" r="1.495"   fill="#FF4343" >
</circle>
<circle cx="140.4444218826294" cy="269.62860309428754" r="1.495"   fill="#28C760" >
</circle>
<circle cx="135.46247255325318" cy="269.62860309428754" r="1.495"   fill="#FFA113" >
</circle>
<circle cx="216.16911254882814" cy="276.10413347244264" r="3.985"   fill="#FFFFFF" >
</circle>
<rect  x="264" y="212" width="24" height="24" rx="1.8260608911514282"    fill="#2F63FF" >
</rect>
<g opacity="0.1">
<path d="M283.312 212.151C281.832 221.564 273.78 228.795 264 229L264 213.826C264 212.818 264.818 212 265.826 212L282.584 212C282.843 212 283.089 212.054 283.312 212.151Z" fill-rule="evenodd"  fill="#FFFFFF" >
</path>
</g>
<rect  x="267.2728431224823" y="215.27271556854248" width="17.45" height="17.45" rx="8.725"    fill="#334680" >
</rect>
<rect  x="271.6365489959717" y="222.36376953125" width="3.27" height="3.27" rx="1.635"    fill="#20242E" >
</rect>
<rect  x="277.09086322784424" y="222.36376953125" width="3.27" height="3.27" rx="1.635"    fill="#20242E" >
</rect>
<path d="M228 244.5L272.5 244.5C278.023 244.5 282.5 248.977 282.5 254.5C282.5 260.023 278.023 264.5 272.5 264.5L255.19 264.5L246 264.5C243.515 264.5 241.5 266.515 241.5 269C241.5 271.485 243.515 273.5 246 273.5L282 273.5L282 276.5L246 276.5C241.858 276.5 238.5 273.142 238.5 269C238.5 264.858 241.858 261.5 246 261.5L254.147 261.5L272.5 261.5C276.366 261.5 279.5 258.366 279.5 254.5C279.5 250.634 276.366 247.5 272.5 247.5L228 247.5L228 244.5Z" fill-rule="evenodd"  fill="#334680" >
</path>
<path     fill="#334680"  d="M290 271L295 271C295.552 271 296 271.448 296 272L296 272C296 272.552 295.552 273 295 273L290 273L290 271Z">
</path>
<path     fill="#334680"  d="M290 277L295 277C295.552 277 296 277.448 296 278L296 278C296 278.552 295.552 279 295 279L290 279L290 277Z">
</path>
<path     fill="#2854D9"  d="M282.445 269.452L287.71 269.452L287.71 280.342L282.445 280.342C279.438 280.342 277 277.904 277 274.897L277 274.897C277 271.89 279.438 269.452 282.445 269.452Z">
</path>
<rect  x="287.0000457763672" y="268.00000762939453" width="3" height="14" rx="0.7260099649429321"    fill="#2F63FF" >
</rect>
<rect  x="293.0000457763672" y="256.00000762939453" width="1" height="5.98" rx="0.5"    fill="#4D79FF" >
</rect>
<rect  x="297.4838628768921" y="266.462121963501" width="1" height="5.98" transform="rotate(-90.00000250447808 297.4838628768921 266.462121963501)" rx="0.5"    fill="#4D79FF" >
</rect>
<rect  x="296.6938784122467" y="263.4228706359863" width="1" height="5.98" transform="rotate(-135 296.6938784122467 263.4228706359863)" rx="0.5"    fill="#4D79FF" >
</rect>
<rect  x="286.4620819091797" y="295.4621047973633" width="1" height="5.98" transform="rotate(180 286.4620819091797 295.4621047973633)" rx="0.5"    fill="#4D79FF" >
</rect>
<rect  x="281.97832202911377" y="285.0000104904175" width="1" height="5.98" transform="rotate(89.99999749552192 281.97832202911377 285.0000104904175)" rx="0.5"    fill="#4D79FF" >
</rect>
<rect  x="282.76830649375916" y="288.03926181793213" width="1" height="5.98" transform="rotate(45 282.76830649375916 288.03926181793213)" rx="0.5"    fill="#4D79FF" >
</rect>
<g opacity="0.1">
<path d="M182.751 186.012C182.916 183.363 183 180.691 183 178C183 172.236 182.616 166.561 181.872 161L126.993 161C125.892 161 125 161.892 125 162.993L125 187.404C125 188.505 125.892 189.397 126.993 189.397L141.44 189.397L141.44 186.408C141.44 185.307 142.333 184.415 143.433 184.415L180.798 184.415C181.763 184.415 182.568 185.101 182.751 186.012ZM172.006 229.765L126.993 229.765C125.892 229.765 125 230.658 125 231.758L125 256.17C125 257.27 125.892 258.162 126.993 258.162L141.44 258.162L141.44 255.173C141.44 254.073 142.333 253.181 143.433 253.181L158.367 253.181C163.705 245.925 168.289 238.082 172.006 229.765ZM149.315 264.148L126.993 264.148C125.892 264.148 125 265.04 125 266.141L125 284.639C133.944 278.84 142.112 271.946 149.315 264.148ZM130.48 167.975C131.306 167.975 131.975 167.306 131.975 166.48C131.975 165.655 131.306 164.986 130.48 164.986C129.655 164.986 128.986 165.655 128.986 166.48C128.986 167.306 129.655 167.975 130.48 167.975ZM135.462 167.975C136.287 167.975 136.957 167.306 136.957 166.48C136.957 165.655 136.287 164.986 135.462 164.986C134.637 164.986 133.967 165.655 133.967 166.48C133.967 167.306 134.637 167.975 135.462 167.975ZM140.444 167.975C141.269 167.975 141.939 167.306 141.939 166.48C141.939 165.655 141.269 164.986 140.444 164.986C139.619 164.986 138.949 165.655 138.949 166.48C138.949 167.306 139.619 167.975 140.444 167.975ZM130.48 202.357C131.306 202.357 131.975 201.688 131.975 200.863C131.975 200.037 131.306 199.368 130.48 199.368C129.655 199.368 128.986 200.037 128.986 200.863C128.986 201.688 129.655 202.357 130.48 202.357ZM135.462 202.357C136.287 202.357 136.957 201.688 136.957 200.863C136.957 200.037 136.287 199.368 135.462 199.368C134.637 199.368 133.967 200.037 133.967 200.863C133.967 201.688 134.637 202.357 135.462 202.357ZM140.444 202.357C141.269 202.357 141.939 201.688 141.939 200.863C141.939 200.037 141.269 199.368 140.444 199.368C139.619 199.368 138.949 200.037 138.949 200.863C138.949 201.688 139.619 202.357 140.444 202.357ZM135.462 236.74C136.287 236.74 136.957 236.071 136.957 235.246C136.957 234.42 136.287 233.751 135.462 233.751C134.637 233.751 133.967 234.42 133.967 235.246C133.967 236.071 134.637 236.74 135.462 236.74ZM138.949 235.246C138.949 236.071 139.619 236.74 140.444 236.74C141.269 236.74 141.939 236.071 141.939 235.246C141.939 234.42 141.269 233.751 140.444 233.751C139.619 233.751 138.949 234.42 138.949 235.246ZM130.48 236.74C131.306 236.74 131.975 236.071 131.975 235.246C131.975 234.42 131.306 233.751 130.48 233.751C129.655 233.751 128.986 234.42 128.986 235.246C128.986 236.071 129.655 236.74 130.48 236.74ZM130.48 271.123C131.306 271.123 131.975 270.454 131.975 269.628C131.975 268.803 131.306 268.134 130.48 268.134C129.655 268.134 128.986 268.803 128.986 269.628C128.986 270.454 129.655 271.123 130.48 271.123ZM135.462 271.123C136.287 271.123 136.957 270.454 136.957 269.628C136.957 268.803 136.287 268.134 135.462 268.134C134.637 268.134 133.967 268.803 133.967 269.628C133.967 270.454 134.637 271.123 135.462 271.123ZM138.949 269.628C138.949 270.454 139.619 271.123 140.444 271.123C141.269 271.123 141.939 270.454 141.939 269.628C141.939 268.803 141.269 268.134 140.444 268.134C139.619 268.134 138.949 268.803 138.949 269.628ZM181.82 195.383L126.993 195.383C125.892 195.383 125 196.275 125 197.375L125 221.787C125 222.888 125.892 223.78 126.993 223.78L174.499 223.78L174.499 223.78L141.44 223.78L141.44 220.791C141.44 219.69 142.333 218.798 143.433 218.798L176.305 218.798C178.852 211.284 180.716 203.454 181.82 195.383Z" fill-rule="evenodd"  fill="#FFFFFF" >
</path>
</g>
</svg>
