<?xml version="1.0" standalone="no"?><!DOCTYPE svg PUBLIC "-//W3C//DTD SVG 1.1//EN" "http://www.w3.org/Graphics/SVG/1.1/DTD/svg11.dtd"><svg height="2933" node-id="1" sillyvg="true" template-height="2933" template-width="3132" version="1.1" viewBox="0 0 3132 2933" width="3132" xmlns="http://www.w3.org/2000/svg" xmlns:xlink="http://www.w3.org/1999/xlink"><defs node-id="111"><linearGradient gradientUnits="userSpaceOnUse" id="paint0_linear_7_590" node-id="26" spreadMethod="pad" x1="2236.24" x2="2236.24" y1="942.782" y2="667.018"><stop offset="0" stop-color="#ffffff" stop-opacity="0.1"></stop><stop offset="0.14" stop-color="#f8fbff" stop-opacity="0.27"></stop><stop offset="0.37" stop-color="#edf5ff" stop-opacity="0.52"></stop><stop offset="0.58" stop-color="#e4f0ff" stop-opacity="0.73"></stop><stop offset="0.76" stop-color="#deecff" stop-opacity="0.88"></stop><stop offset="0.91" stop-color="#daeaff" stop-opacity="0.97"></stop><stop offset="1" stop-color="#d9e9ff"></stop></linearGradient><linearGradient gradientUnits="userSpaceOnUse" id="paint1_linear_7_590" node-id="34" spreadMethod="pad" x1="290.49" x2="721.267" y1="1175.66" y2="612.219"><stop offset="0" stop-color="#ffffff" stop-opacity="0.1"></stop><stop offset="0.09" stop-color="#fefeff" stop-opacity="0.13"></stop><stop offset="0.23" stop-color="#fbfcff" stop-opacity="0.21"></stop><stop offset="0.4" stop-color="#f5f9ff" stop-opacity="0.33"></stop><stop offset="0.59" stop-color="#eef5ff" stop-opacity="0.51"></stop><stop offset="0.79" stop-color="#e4efff" stop-opacity="0.74"></stop><stop offset="1" stop-color="#d9e9ff"></stop></linearGradient><linearGradient gradientUnits="userSpaceOnUse" id="paint2_linear_7_590" node-id="42" spreadMethod="pad" x1="2331.5" x2="2804" y1="1024" y2="406"><stop offset="0" stop-color="#ffffff" stop-opacity="0.1"></stop><stop offset="0.09" stop-color="#fefeff" stop-opacity="0.13"></stop><stop offset="0.23" stop-color="#fbfcff" stop-opacity="0.21"></stop><stop offset="0.4" stop-color="#f5f9ff" stop-opacity="0.33"></stop><stop offset="0.59" stop-color="#eef5ff" stop-opacity="0.51"></stop><stop offset="0.79" stop-color="#e4efff" stop-opacity="0.74"></stop><stop offset="1" stop-color="#d9e9ff"></stop></linearGradient><linearGradient gradientUnits="userSpaceOnUse" id="paint3_linear_7_590" node-id="50" spreadMethod="pad" x1="1692.27" x2="1737.27" y1="2928.5" y2="1670.5"><stop offset="0.2597" stop-color="#ffffff"></stop><stop offset="1" stop-color="#6397f7"></stop></linearGradient><linearGradient gradientUnits="userSpaceOnUse" id="paint4_linear_7_590" node-id="53" spreadMethod="pad" x1="2791.93" x2="2635.5" y1="2188.05" y2="2190.51"><stop offset="0" stop-color="#f3f8ff"></stop><stop offset="1" stop-color="#e4efff"></stop></linearGradient><linearGradient gradientUnits="userSpaceOnUse" id="paint5_linear_7_590" node-id="56" spreadMethod="pad" x1="3079.86" x2="2923.43" y1="2332.02" y2="2334.48"><stop offset="0" stop-color="#f3f8ff"></stop><stop offset="1" stop-color="#e4efff"></stop></linearGradient><linearGradient gradientUnits="userSpaceOnUse" id="paint6_linear_7_590" node-id="59" spreadMethod="pad" x1="529.695" x2="309.949" y1="2372.96" y2="2376.38"><stop offset="0" stop-color="#f3f8ff"></stop><stop offset="1" stop-color="#e4efff"></stop></linearGradient><linearGradient gradientUnits="userSpaceOnUse" id="paint7_linear_7_590" node-id="62" spreadMethod="pad" x1="1032.25" x2="2669.5" y1="454.19" y2="1887.12"><stop offset="0" stop-color="#5a91f7" stop-opacity="0.21"></stop><stop offset="0.9749" stop-color="#ffffff" stop-opacity="0.54"></stop></linearGradient><linearGradient gradientUnits="userSpaceOnUse" id="paint8_linear_7_590" node-id="65" spreadMethod="pad" x1="2279" x2="2344.63" y1="1711" y2="1249.7"><stop offset="0" stop-color="#5792f0"></stop><stop offset="1" stop-color="#e4efff"></stop></linearGradient><linearGradient gradientUnits="userSpaceOnUse" id="paint9_linear_7_590" node-id="68" spreadMethod="pad" x1="1433.5" x2="1437.05" y1="1642" y2="1302.37"><stop offset="0" stop-color="#5792f0"></stop><stop offset="1" stop-color="#e4efff"></stop></linearGradient><linearGradient gradientUnits="userSpaceOnUse" id="paint10_linear_7_590" node-id="71" spreadMethod="pad" x1="1720" x2="2042.49" y1="1340.5" y2="2179.43"><stop offset="0" stop-color="#e4efff"></stop><stop offset="1" stop-color="#5792f0"></stop></linearGradient><linearGradient gradientUnits="userSpaceOnUse" id="paint11_linear_7_590" node-id="74" spreadMethod="pad" x1="979" x2="1471.05" y1="1440" y2="2246.01"><stop offset="0" stop-color="#e4efff"></stop><stop offset="1" stop-color="#5792f0"></stop></linearGradient><linearGradient gradientUnits="userSpaceOnUse" id="paint12_linear_7_590" node-id="77" spreadMethod="pad" x1="1092.5" x2="1146.87" y1="1432" y2="1852.19"><stop offset="0" stop-color="#d9e9ff"></stop><stop offset="1" stop-color="#5792f0"></stop></linearGradient><linearGradient gradientUnits="userSpaceOnUse" id="paint13_linear_7_590" node-id="80" spreadMethod="pad" x1="2025.5" x2="2032.58" y1="1349" y2="1829.18"><stop offset="0" stop-color="#f3f8ff"></stop><stop offset="1" stop-color="#5792f0"></stop></linearGradient><linearGradient gradientUnits="userSpaceOnUse" id="paint14_linear_7_590" node-id="83" spreadMethod="pad" x1="1151" x2="667.866" y1="534.308" y2="678.161"><stop offset="0" stop-color="#5792f0"></stop><stop offset="1" stop-color="#bfd4fa" stop-opacity="0.5"></stop></linearGradient><linearGradient gradientUnits="userSpaceOnUse" id="paint15_linear_7_590" node-id="86" spreadMethod="pad" x1="1027" x2="859.322" y1="889.976" y2="1020.68"><stop offset="0" stop-color="#5792f0"></stop><stop offset="1" stop-color="#bfd4fa" stop-opacity="0.5"></stop></linearGradient><linearGradient gradientUnits="userSpaceOnUse" id="paint16_linear_7_590" node-id="89" spreadMethod="pad" x1="2314" x2="1618.86" y1="175.239" y2="670.957"><stop offset="0" stop-color="#5792f0"></stop><stop offset="1" stop-color="#bfd4fa" stop-opacity="0.5"></stop></linearGradient><linearGradient gradientUnits="userSpaceOnUse" id="paint17_linear_7_590" node-id="92" spreadMethod="pad" x1="2371" x2="2163.84" y1="333.097" y2="537.715"><stop offset="0" stop-color="#5792f0"></stop><stop offset="1" stop-color="#bfd4fa" stop-opacity="0.5"></stop></linearGradient><linearGradient gradientUnits="userSpaceOnUse" id="paint18_linear_7_590" node-id="95" spreadMethod="pad" x1="2195" x2="1688.79" y1="908.927" y2="1540.9"><stop offset="0" stop-color="#5792f0"></stop><stop offset="1" stop-color="#bfd4fa" stop-opacity="0.5"></stop></linearGradient><linearGradient gradientUnits="userSpaceOnUse" id="paint19_linear_7_590" node-id="98" spreadMethod="pad" x1="1346.11" x2="993.316" y1="622.938" y2="523.401"><stop offset="0" stop-color="#5792f0"></stop><stop offset="1" stop-color="#f3f8ff"></stop></linearGradient><linearGradient gradientUnits="userSpaceOnUse" id="paint20_linear_7_590" node-id="101" spreadMethod="pad" x1="2022" x2="1314.27" y1="1083.5" y2="852.889"><stop offset="0" stop-color="#5792f0"></stop><stop offset="1" stop-color="#f3f8ff"></stop></linearGradient><linearGradient gradientUnits="userSpaceOnUse" id="paint21_linear_7_590" node-id="104" spreadMethod="pad" x1="1205.26" x2="1127.23" y1="822" y2="691.852"><stop offset="0" stop-color="#909aa9"></stop><stop offset="1" stop-color="#c0c7d2"></stop></linearGradient><linearGradient gradientUnits="userSpaceOnUse" id="paint22_linear_7_590" node-id="107" spreadMethod="pad" x1="1719" x2="1539.7" y1="1288.93" y2="1427.24"><stop offset="0" stop-color="#5792f0"></stop><stop offset="1" stop-color="#bfd4fa" stop-opacity="0.5"></stop></linearGradient></defs><path d="M 2424.74 771.73 C 2404.69 740.24 2370.74 720.72 2333.81 719.38 C 2312.31 686.10 2275.45 666.35 2236.21 667.02 C 2204.80 666.72 2174.54 679.24 2152.29 701.82 C 2142.12 698.54 2131.50 696.83 2120.84 696.83 C 2071.42 696.83 2030.62 731.49 2026.41 775.35 C 1988.73 784.44 1961.60 817.79 1960.00 857.03 C 1960.00 904.29 2002.71 942.78 2054.43 942.78 L 2417.10 942.78 C 2469.57 942.78 2511.53 904.29 2511.53 857.03 C 2512.35 812.13 2473.56 775.24 2424.74 771.73 Z" fill="url(#paint0_linear_7_590)" fill-rule="nonzero" node-id="282" stroke="none" target-height="276.43005" target-width="552.3501" target-x="1960" target-y="666.35"></path><path d="M 836.18 754.00 L 774.96 754.00 C 774.96 631.36 675.55 532.00 553.02 532.00 C 430.41 532.00 331.09 631.36 331.09 754.00 L 286.36 754.00 C 229.92 754.00 184.27 803.68 184.27 865.00 C 184.27 926.32 230.00 976.00 286.36 976.00 L 836.18 976.00 C 892.55 976.00 938.27 926.32 938.27 865.00 C 938.27 803.68 892.55 754.00 836.18 754.00 Z" fill="url(#paint1_linear_7_590)" fill-rule="nonzero" node-id="284" stroke="none" target-height="444" target-width="754" target-x="184.27" target-y="532"></path><path d="M 2930.02 561.50 L 2862.89 561.50 C 2862.89 426.93 2753.86 318.00 2619.47 318.00 C 2485.07 318.00 2376.04 426.93 2376.04 561.50 L 2326.97 561.50 C 2265.09 561.50 2215.00 615.97 2215.00 683.25 C 2215.00 750.40 2265.09 805.00 2326.97 805.00 L 2930.02 805.00 C 2991.91 805.00 3042.00 750.40 3042.00 683.25 C 3042.00 615.97 2991.91 561.50 2930.02 561.50 Z" fill="url(#paint2_linear_7_590)" fill-rule="nonzero" node-id="286" stroke="none" target-height="487" target-width="827" target-x="2215" target-y="318"></path><path d="M 1522.45 2071.04 C 1964.28 2071.04 2362.13 2107.10 2640.28 2164.61 C 2912.30 2166.49 3131.28 2247.90 3131.28 2348.17 C 3131.28 2427.64 2993.71 2495.31 2801.23 2520.86 C 2755.31 2534.39 2703.55 2547.21 2646.76 2559.16 C 2648.27 2566.71 2648.99 2574.42 2648.99 2582.12 C 2648.99 2757.04 2268.70 2898.84 1799.58 2898.84 C 1377.55 2898.84 1027.35 2784.03 961.34 2633.66 C 398.21 2590.90 0.00 2485.66 0.00 2362.57 C 0.00 2201.54 681.61 2071.04 1522.45 2071.04 Z" fill="url(#paint3_linear_7_590)" fill-opacity="0.68" fill-rule="evenodd" node-id="288" stroke="none" target-height="827.80005" target-width="3131.28" target-x="0" target-y="2071.04"></path><path d="M 2809.58 1967.16 L 2811.81 1974.72 L 2813.69 1981.85 L 2814.55 1987.61 L 2812.82 1999.41 L 2807.78 2009.63 L 2800.01 2017.91 L 2790.22 2023.60 L 2781.72 2024.03 L 2773.59 2024.46 L 2765.02 2024.46 L 2694.91 2025.40 L 2694.91 2099.61 L 2695.56 2132.73 L 2697.14 2162.74 L 2699.38 2193.41 L 2634.59 2193.41 L 2635.96 2176.06 L 2636.82 2148.27 L 2637.33 2101.41 L 2637.33 2033.39 L 2629.12 2038.43 L 2620.19 2040.08 L 2612.92 2039.15 L 2606.95 2036.48 L 2601.84 2032.31 L 2597.73 2026.69 L 2546.84 2024.03 L 2533.24 2018.56 L 2522.15 2009.13 L 2516.61 2001.14 L 2513.37 1992.29 L 2512.22 1982.28 L 2512.65 1977.39 L 2514.02 1972.92 L 2525.25 1947.15 L 2527.12 1937.65 L 2530.86 1928.94 L 2536.26 1921.02 L 2542.81 1914.26 L 2613.43 1784.90 L 2613.86 1784.90 L 2623.36 1770.29 L 2634.16 1758.20 L 2642.51 1752.15 L 2652.44 1748.41 L 2664.25 1747.11 L 2679.72 1749.27 L 2693.33 1755.53 L 2704.49 1765.32 L 2712.40 1777.78 L 2769.13 1887.55 L 2778.70 1892.01 L 2787.05 1898.20 L 2794.32 1906.27 L 2799.79 1915.55 L 2803.10 1925.70 L 2804.18 1936.93 L 2801.95 1952.05 L 2809.58 1967.16 Z" fill="url(#paint4_linear_7_590)" fill-rule="nonzero" node-id="290" stroke="none" target-height="446.29993" target-width="302.33008" target-x="2512.22" target-y="1747.11"></path><path d="M 3097.52 2111.13 L 3099.75 2118.69 L 3101.62 2125.82 L 3102.48 2131.57 L 3100.75 2143.38 L 3095.72 2153.60 L 3087.94 2161.88 L 3078.15 2167.57 L 3069.66 2168.00 L 3061.52 2168.43 L 3052.96 2168.43 L 2982.85 2169.37 L 2982.85 2243.58 L 2983.49 2276.69 L 2985.08 2306.71 L 2987.31 2337.37 L 2922.52 2337.37 L 2923.89 2320.03 L 2924.76 2292.24 L 2925.26 2245.38 L 2925.26 2177.36 L 2917.05 2182.39 L 2908.13 2184.05 L 2900.86 2183.11 L 2894.88 2180.45 L 2889.77 2176.28 L 2885.67 2170.66 L 2834.78 2168.00 L 2821.17 2162.53 L 2810.09 2153.10 L 2804.54 2145.11 L 2801.30 2136.25 L 2800.15 2126.25 L 2800.58 2121.35 L 2801.95 2116.89 L 2813.18 2091.12 L 2815.05 2081.62 L 2818.80 2072.91 L 2824.19 2064.99 L 2830.75 2058.22 L 2901.36 1928.87 L 2901.79 1928.87 L 2911.29 1914.26 L 2922.09 1902.16 L 2930.44 1896.12 L 2940.38 1892.37 L 2952.18 1891.08 L 2967.66 1893.24 L 2981.26 1899.50 L 2992.42 1909.29 L 3000.34 1921.74 L 3057.06 2031.52 L 3066.63 2035.98 L 3074.98 2042.17 L 3082.26 2050.23 L 3087.73 2059.52 L 3091.04 2069.67 L 3092.12 2080.90 L 3089.89 2096.01 L 3097.52 2111.13 Z" fill="url(#paint5_linear_7_590)" fill-rule="nonzero" node-id="292" stroke="none" target-height="446.29016" target-width="302.33008" target-x="2800.15" target-y="1891.08"></path><path d="M 554.49 2059.45 L 557.65 2070.17 L 560.17 2080.25 L 561.47 2088.46 L 560.39 2099.90 L 557.22 2110.27 L 551.97 2119.70 L 541.10 2131.43 L 527.35 2139.56 L 515.33 2140.21 L 503.96 2140.79 L 491.93 2140.79 L 393.39 2142.08 L 393.39 2247.47 L 394.32 2294.47 L 396.48 2337.01 L 399.65 2380.56 L 308.67 2380.56 L 310.54 2355.95 L 311.83 2316.50 L 312.48 2249.99 L 312.48 2153.46 L 304.85 2158.78 L 296.93 2161.88 L 288.44 2162.89 L 278.29 2161.59 L 269.79 2157.85 L 262.67 2151.95 L 256.84 2143.96 L 185.43 2140.21 L 172.26 2135.53 L 160.74 2128.55 L 150.66 2119.05 L 142.96 2107.68 L 138.35 2095.08 L 136.77 2080.90 L 137.42 2073.92 L 139.29 2067.65 L 155.12 2031.01 L 157.72 2017.62 L 162.97 2005.17 L 170.53 1993.94 L 179.74 1984.37 L 278.94 1800.74 L 279.58 1800.74 L 292.90 1780.01 L 308.02 1762.88 L 319.82 1754.24 L 333.71 1748.98 L 350.42 1747.11 L 365.17 1748.48 L 378.70 1752.44 L 391.16 1759.13 L 402.17 1767.99 L 411.10 1778.42 L 418.01 1790.66 L 497.62 1946.51 L 511.08 1952.77 L 522.82 1961.55 L 533.04 1973.00 L 540.74 1986.17 L 545.35 2000.56 L 546.93 2016.54 L 546.21 2026.69 L 543.76 2038.00 L 554.49 2059.45 Z" fill="url(#paint6_linear_7_590)" fill-rule="nonzero" node-id="294" stroke="none" target-height="633.4501" target-width="424.69995" target-x="136.77" target-y="1747.11"></path><path d="M 930.50 2156.00 L 1779.93 1970.00 L 3040.50 2527.50 L 1417.50 2932.50 L 930.50 2156.00 Z" fill="url(#paint7_linear_7_590)" fill-opacity="0.68" fill-rule="nonzero" node-id="296" stroke="none" target-height="962.5" target-width="2110" target-x="930.5" target-y="1970"></path><path d="M 2217.00 1394.04 L 1482.00 1302.00 L 1482.00 1666.92 L 2205.28 1751.00 L 2217.00 1394.04 Z" fill="url(#paint8_linear_7_590)" fill-rule="nonzero" node-id="298" stroke="none" target-height="449" target-width="735" target-x="1482" target-y="1302"></path><path d="M 900.00 1420.91 L 1481.93 1302.00 L 1482.00 1711.81 L 900.00 1830.00 L 900.00 1420.91 Z" fill="url(#paint9_linear_7_590)" fill-rule="nonzero" node-id="300" stroke="none" target-height="528" target-width="582" target-x="900" target-y="1302"></path><path d="M 1584.00 1578.43 L 2210.00 1418.00 L 2210.00 2176.57 L 1584.00 2337.00 L 1584.00 1578.43 Z" fill="url(#paint10_linear_7_590)" fill-rule="nonzero" node-id="302" stroke="none" target-height="919" target-width="626" target-x="1584" target-y="1418"></path><path d="M 908.00 1440.00 L 1592.00 1575.64 L 1588.00 2337.00 L 908.00 2185.96 L 908.00 1440.00 Z" fill="url(#paint11_linear_7_590)" fill-rule="nonzero" node-id="304" stroke="none" target-height="897" target-width="684" target-x="908" target-y="1440"></path><path d="M 1592.00 1578.30 L 901.80 1432.00 L 755.00 1701.48 L 1456.92 1867.00 L 1592.00 1578.30 Z" fill="url(#paint12_linear_7_590)" fill-rule="nonzero" node-id="306" stroke="none" target-height="435" target-width="837" target-x="755" target-y="1432"></path><path d="M 1592.00 1575.60 L 2217.75 1404.00 L 2377.00 1671.02 L 1777.71 1867.00 L 1592.00 1575.60 Z" fill="url(#paint13_linear_7_590)" fill-rule="nonzero" node-id="308" stroke="none" target-height="463" target-width="785" target-x="1592" target-y="1404"></path><path d="M 924.44 325.00 L 894.58 370.85 L 871.27 413.51 L 853.87 453.42 L 841.63 490.73 L 834.13 525.78 L 831.00 559.03 L 831.87 590.61 L 836.61 620.89 L 845.20 650.15 L 857.80 678.61 L 874.55 706.50 L 895.82 733.95 L 922.11 761.12 L 953.93 787.99 L 991.95 814.57 L 1036.95 840.79 L 1089.68 866.65 L 1151.00 892.00" fill="none" node-id="310" stroke="url(#paint14_linear_7_590)" stroke-linecap="butt" stroke-width="1" target-height="567" target-width="320" target-x="831" target-y="325"></path><path d="M 863.00 849.00 L 892.86 883.16 L 920.09 909.62 L 945.00 929.44 L 967.79 943.57 L 988.84 953.01 L 1008.43 958.34 L 1027.00 960.00" fill="none" node-id="312" stroke="url(#paint15_linear_7_590)" stroke-linecap="butt" stroke-width="1" target-height="111" target-width="164" target-x="863" target-y="849"></path><path d="M 2314.00 1.00 L 2313.27 38.02 L 2308.54 73.30 L 2299.80 107.21 L 2287.13 139.90 L 2270.23 171.64 L 2249.03 202.58 L 2223.03 232.81 L 2191.79 262.52 L 2154.86 291.66 L 2111.53 320.22 L 2061.20 348.13 L 2003.08 375.25 L 1936.44 401.49 L 1860.26 426.65 L 1773.81 450.59 L 1676.00 473.00" fill="none" node-id="314" stroke="url(#paint16_linear_7_590)" stroke-linecap="butt" stroke-width="1" target-height="472" target-width="638" target-x="1676" target-y="1"></path><path d="M 2371.00 284.00 L 2318.22 325.80 L 2272.49 357.89 L 2232.94 381.65 L 2198.84 398.38 L 2169.40 409.25 L 2144.03 415.12 L 2122.00 417.00" fill="none" node-id="316" stroke="url(#paint17_linear_7_590)" stroke-linecap="butt" stroke-width="1" target-height="133" target-width="249" target-x="2122" target-y="284"></path><path d="M 2195.00 797.72 L 2111.14 789.62 L 2033.89 786.00 L 1962.69 786.51 L 1897.23 790.78 L 1837.08 798.59 L 1781.73 809.59 L 1730.81 823.63 L 1684.04 840.56 L 1641.06 860.24 L 1601.56 882.60 L 1565.34 907.64 L 1532.10 935.35 L 1501.77 965.89 L 1474.06 999.25 L 1449.11 1035.79 L 1426.71 1075.58 L 1407.00 1119.00" fill="none" node-id="318" stroke="url(#paint18_linear_7_590)" stroke-linecap="butt" stroke-width="1" target-height="333" target-width="788" target-x="1407" target-y="786"></path><path d="M 914.00 499.00 L 992.77 513.35 L 1056.03 528.78 L 1106.01 544.86 L 1144.71 561.38 L 1174.08 578.05 L 1195.65 594.71 L 1210.88 611.31 L 1220.93 627.97 L 1226.54 645.07 L 1228.00 662.89 L 1225.23 682.09 L 1217.73 703.18 L 1206.94 722.02 L 1195.35 734.62 L 1182.89 742.38 L 1169.19 746.00 L 1153.60 745.49 L 1135.16 740.13 L 1113.16 728.54 L 1086.49 708.98 L 1054.28 678.98 L 1015.51 636.09 L 969.16 577.18 L 914.00 499.00 Z" fill="url(#paint19_linear_7_590)" fill-rule="nonzero" node-id="320" stroke="none" target-height="247" target-width="314" target-x="914" target-y="499"></path><path d="M 1470.00 1213.72 L 1497.80 1164.44 L 1526.26 1122.70 L 1555.15 1087.67 L 1584.63 1058.59 L 1614.61 1034.93 L 1645.26 1016.19 L 1676.70 1002.00 L 1709.16 992.09 L 1743.00 986.45 L 1778.37 985.00 L 1815.71 987.97 L 1855.37 995.71 L 1897.66 1008.66 L 1943.00 1027.33 L 1919.49 1066.40 L 1894.16 1100.48 L 1867.24 1130.00 L 1838.56 1155.47 L 1808.07 1176.96 L 1775.53 1194.83 L 1740.89 1209.09 L 1703.77 1219.73 L 1663.89 1226.74 L 1620.95 1230.00 L 1574.59 1229.13 L 1524.37 1223.85 L 1470.00 1213.72 Z" fill="url(#paint20_linear_7_590)" fill-rule="nonzero" node-id="322" stroke="none" target-height="245" target-width="473" target-x="1470" target-y="985"></path><path d="M 1151.00 674.00 L 1167.77 679.63 L 1182.31 688.16 L 1194.89 699.64 L 1205.66 714.45 L 1214.70 733.23 L 1221.71 756.78 L 1226.34 786.03 L 1228.00 822.00" fill="none" node-id="324" stroke="url(#paint21_linear_7_590)" stroke-linecap="round" stroke-width="1" target-height="148" target-width="77" target-x="1151" target-y="674"></path><path d="M 1545.00 1364.00 L 1562.83 1334.02 L 1581.61 1309.29 L 1601.40 1289.18 L 1622.21 1273.18 L 1644.18 1260.93 L 1667.38 1252.14 L 1692.25 1246.87 L 1719.00 1245.00" fill="none" node-id="326" stroke="url(#paint22_linear_7_590)" stroke-linecap="butt" stroke-width="1" target-height="119" target-width="174" target-x="1545" target-y="1245"></path></svg>
